<svg width="306" height="306" viewBox="0 0 306 306" fill="none" xmlns="http://www.w3.org/2000/svg">
<circle cx="153" cy="153" r="153" fill="#CADDF8"/>
<mask id="mask0" mask-type="alpha" maskUnits="userSpaceOnUse" x="6" y="6" width="288" height="288">
<circle cx="149.915" cy="149.915" r="143.746" fill="#B6D4FF"/>
</mask>
<g mask="url(#mask0)">
<circle cx="149.915" cy="149.915" r="143.746" fill="white"/>
<path fill-rule="evenodd" clip-rule="evenodd" d="M97.9495 81.5828C97.2252 99.031 87.9947 109.487 87.1328 125.771C86.0236 146.715 98.034 144.502 97.1241 161.689C96.6521 170.596 176.002 192.098 198.364 164.09C212.714 146.117 198.481 143.877 199.772 119.493C201.05 95.3553 183.673 91.732 184.346 79.0065C185.243 62.0722 171.639 39.509 149.43 38.3288C122.38 36.892 99.0446 55.2113 97.9495 81.5828Z" fill="#19141E"/>
<path fill-rule="evenodd" clip-rule="evenodd" d="M138.388 122.551C138.388 122.551 146.342 123.209 149.836 121.534L138.533 127.821L138.388 122.551Z" fill="#CF3E83"/>
<path d="M156.607 107.674C153.893 111.538 154.638 116.857 155.901 120.01C156.327 121.093 158.988 130.123 159.424 130.549C161.117 132.2 138.883 140.52 138.883 140.52L138.387 122.55C132.068 122.58 124.691 121.855 120.774 118.939C109.104 110.252 109.867 82.3157 110.14 80.9307L120.887 70.1195C120.887 70.1195 136.561 63.8663 138.73 66.9917C142.698 72.7156 151.359 97.8465 158.724 95.4213C158.724 95.4213 158.219 87.7244 164.603 88.0724C169.36 88.3315 170.446 92.2157 170.325 94.4194C169.92 101.859 160.253 102.468 156.607 107.674" fill="#E576C6"/>
<path fill-rule="evenodd" clip-rule="evenodd" d="M122.502 94.5674L117.357 105.378L122.651 105.553L122.502 94.5674Z" fill="#2F2F3D"/>
<path fill-rule="evenodd" clip-rule="evenodd" d="M127.33 95.3042C127.326 97.5183 128.534 99.3075 130.027 99.3007C131.52 99.2939 132.733 97.4931 132.736 95.2795C132.74 93.0653 131.533 91.2762 130.04 91.283C128.547 91.2898 127.334 93.0906 127.33 95.3042" fill="#2F2F3D"/>
<path fill-rule="evenodd" clip-rule="evenodd" d="M113.373 94.2102C113.369 96.4244 114.577 98.2135 116.07 98.2067C117.563 98.1999 118.776 96.3991 118.779 94.1855C118.783 91.9713 117.576 90.1822 116.083 90.189C114.59 90.1958 113.377 91.9966 113.373 94.2102" fill="#2F2F3D"/>
<path fill-rule="evenodd" clip-rule="evenodd" d="M118.949 51.8561C118.423 51.2678 117.866 50.7068 117.279 50.1758C115.963 51.3054 114.715 52.5109 113.549 53.7929C107.276 60.6773 103.267 69.6247 102.725 79.5666C102.711 79.8183 102.698 80.0638 102.69 80.3155H102.684L102.245 88.3709C102.557 88.3758 102.863 88.3684 103.176 88.3555C109.284 88.0815 114.808 85.3917 118.704 81.1891C120.149 79.6283 121.373 77.8571 122.323 75.9261C122.473 75.6398 122.606 75.3406 122.739 75.0537C123.4 73.526 123.893 71.9074 124.193 70.2212C145.071 99.708 158.724 95.4214 158.724 95.4214L156.745 79.9986L171.959 63.6344C171.959 63.6344 128.571 44.8881 118.949 51.8561V51.8561Z" fill="#19141E"/>
<path fill-rule="evenodd" clip-rule="evenodd" d="M118.949 51.8561C118.423 51.2678 117.866 50.7068 117.279 50.1758C115.963 51.3054 114.715 52.5109 113.549 53.7929C107.276 60.6773 103.267 69.6247 102.725 79.5666C102.711 79.8183 102.698 80.0638 102.69 80.3155H102.684L102.245 88.3709C102.557 88.3758 102.863 88.3684 103.176 88.3555C109.284 88.0815 114.808 85.3917 118.704 81.1891C120.149 79.6283 121.373 77.8571 122.323 75.9261C122.473 75.6398 122.606 75.3406 122.739 75.0537C123.4 73.526 123.893 71.9074 124.193 70.2212C145.071 99.708 158.724 95.4214 158.724 95.4214L156.745 79.9986L171.959 63.6344C171.959 63.6344 128.571 44.8881 118.949 51.8561V51.8561Z" fill="#19141E"/>
<path d="M123.669 110.915C123.669 110.915 127.056 112.21 130.713 108.554" stroke="#2F2F3D" stroke-width="1.85081"/>
<path opacity="0.396996" fill-rule="evenodd" clip-rule="evenodd" d="M138.401 122.551C138.401 122.551 146.354 123.209 149.849 121.534L138.546 127.822L138.401 122.551Z" fill="#121212"/>
<path fill-rule="evenodd" clip-rule="evenodd" d="M129.337 140.778C133.048 134.499 138.017 130.987 138.017 130.987L160.725 129.891C160.725 129.891 158.791 134.876 156.743 141.286C152.696 153.958 143.094 156.806 134.727 156.791C126.913 156.779 124.257 149.368 129.337 140.778ZM67.5538 172.742C67.7784 170.542 67.016 171.006 66.0741 171.579C65.3072 172.045 64.4213 172.584 63.8522 171.816C61.5258 168.679 65.3946 175.518 65.3946 175.518H63.2353L63.2036 175.509C63.2705 175.754 63.0411 176.061 62.3099 176.443C61.9859 176.613 61.7544 176.733 61.5954 176.815C61.9786 176.627 62.5358 176.372 62.0014 176.752C61.8483 176.861 61.6639 176.9 61.459 176.886C61.3247 176.954 61.2839 176.974 61.3026 176.964C61.3183 176.955 61.3758 176.925 61.4551 176.885C60.8772 176.842 60.1372 176.373 59.4765 175.827C59.5675 176.407 59.1642 176.896 58.8171 177.317C58.261 177.992 57.8489 178.492 59.8422 178.911C60.0463 179.241 60.2617 179.589 60.4878 179.955C68.4034 192.756 89.3886 226.692 99.9161 224.311C111.165 221.768 121.602 182.446 121.602 182.446L102.628 173.203L94.3667 198.666L67.5538 172.742ZM58.9168 174.901C59.2669 175.234 59.4316 175.541 59.4765 175.827C58.0033 174.609 56.9245 173.009 58.9168 174.901ZM61.4551 176.885L61.459 176.886L61.5954 176.815C61.5446 176.84 61.4969 176.864 61.4551 176.885ZM60.1506 174.593C60.1506 174.593 63.0034 174.774 63.2036 175.509L60.1506 174.593ZM202.326 263.766L197.708 275.577C197.708 275.577 197.007 278.617 196.615 282.211C196.597 282.373 196.58 282.533 196.563 282.691C196.205 286.009 195.965 288.234 193.693 293.382C192.035 297.14 197.401 296.017 198.923 293.918C199.485 293.144 199.947 291.51 200.427 289.811C201.29 286.764 202.21 283.508 203.869 284.636C206.452 286.392 207.231 295.322 206.653 303.756C206.562 305.08 207.482 306.162 208.14 306.543C209.206 307.16 210.763 301.941 210.763 301.941C210.763 301.941 211.323 303.775 213.022 303.009C213.623 302.738 215.414 299.188 215.414 299.188C215.414 299.188 216.802 297.438 217.531 295.484C218.819 292.034 219.871 285.632 219.623 283.751C219.037 279.317 217.72 271.833 215.988 267.688C217.01 257.035 220.93 214.266 218.768 206.142C216.293 196.846 211.444 184.248 211.444 184.248L192.837 195.192L200.813 212.221L202.326 263.766Z" fill="#E576C6"/>
<path d="M159.168 129.891C159.168 129.891 159.168 130.482 157.318 130.79C154.233 131.135 154.233 131.135 149.297 131.135C143.745 131.135 148.68 131.135 142.82 131.135C138.193 131.135 139.804 130.79 138.193 130.79C128.325 131.457 121.803 133.041 116.113 138.378C105.279 148.54 96.5059 167.273 92.8987 185.779L112.697 194.615L119.748 221.863L171.562 221.073C171.562 221.073 171.108 216.082 172.226 208.87C173.681 199.437 178.935 192.398 178.935 192.398L184.146 200.319L216.557 181.213C205.946 161.864 191.146 141.913 181.278 135.565C174.307 131.079 167.924 129.952 161.687 129.891C159.411 129.891 161.945 129.894 159.168 129.891Z" fill="#6091E7"/>
<path opacity="0.202962" d="M119.517 222.336C117.537 197.201 104.455 191.269 114.326 163.079" stroke="#121212" stroke-width="1.85081"/>
<path opacity="0.202962" d="M165.627 174.801L177.649 193.016" stroke="#121212" stroke-width="1.85081"/>
<path d="M69.6176 175.536L70.3301 167.488C70.3301 167.488 70.3246 164.165 69.9004 160.578C69.4762 156.991 67.0286 152.75 69.6176 146.418C72.2065 140.091 66.017 144.459 64.6463 147.469C63.5042 149.977 64.1079 155.253 62.7046 157.184C61.5189 156.529 60.7303 155.677 60.7303 155.677L47.3884 138.171C46.9588 137.583 46.1647 137.407 45.5283 137.753L44.8104 138.149C44.0543 138.567 43.815 139.547 44.2991 140.262C46.9044 144.129 54.9758 155.473 54.7583 155.589L54.4047 156.023L38.735 139.31C38.2455 138.755 37.4242 138.655 36.8205 139.079L35.8795 139.739C35.1942 140.218 35.0474 141.175 35.5586 141.835C38.6752 145.906 50.369 158.829 50.146 158.955L49.6783 159.412L35.0909 146.379C34.5742 145.796 33.6931 145.73 33.0948 146.22L32.3823 146.808C31.7568 147.32 31.6643 148.25 32.1756 148.877L45.9525 161.981L45.5555 162.614L33.5952 154.114C33.0458 153.619 32.2191 153.619 31.6643 154.109L31.3326 154.411C30.7451 154.939 30.6799 155.847 31.1911 156.458C32.9425 158.554 38.3815 162.064 42.6565 166.393C45.9743 169.755 47.6006 172.94 52.2346 176.714C54.1926 178.315 59.9124 179.876 61.5767 180.762L69.6176 175.536Z" fill="#E576C6"/>
<path d="M209.714 528.972C209.07 508.915 204.912 382.22 200.64 306.843C197.679 254.597 175.522 225.833 171.364 220.863H118.571C118.475 221.53 111.368 271.833 110.068 377.087C108.9 471.348 110.104 522.871 110.254 528.93L110.255 528.933L108.568 528.93L108.558 537.045L135.895 537.089L135.906 528.974L134.963 528.973L134.963 528.972L148.846 364.022L153.004 314.654L184.566 528.93L184.567 528.931L183.201 528.929L183.678 537.044L211.981 537.09L211.505 528.975L209.714 528.973L209.714 528.972Z" fill="#2F2F3D"/>
<path opacity="0.398065" fill-rule="evenodd" clip-rule="evenodd" d="M153.004 314.655L147.324 266.361L148.848 364.021L153.004 314.655Z" fill="#0A0A0F"/>
</g>
</svg>
