<svg width="541" height="635" viewBox="0 0 541 635" fill="none" xmlns="http://www.w3.org/2000/svg">
<g clip-path="url(#clip0)">
<path fill-rule="evenodd" clip-rule="evenodd" d="M412.344 455.619L367.822 634.86H378.223L422.746 455.619H412.344Z" fill="#CCE3FF"/>
<path d="M464.89 544.398L489.519 457.439" stroke="#B6D4FF" stroke-width="7"/>
<path d="M445.617 457.439L509.791 544.156" stroke="#B6D4FF" stroke-width="7"/>
<path fill-rule="evenodd" clip-rule="evenodd" d="M445.617 457.439L353.585 543.187Z" fill="white"/>
<path d="M445.617 457.439L353.585 543.187" stroke="#B6D4FF" stroke-width="7"/>
<path fill-rule="evenodd" clip-rule="evenodd" d="M484.093 455.511L527.973 634.86H538.224L494.344 455.511H484.093Z" fill="#CCE3FF"/>
<path d="M373.722 457.439L464.89 543.187" stroke="#B6D4FF" stroke-width="7"/>
<path fill-rule="evenodd" clip-rule="evenodd" d="M368.425 455.619L323.903 634.86H334.304L378.826 455.619H368.425Z" fill="#DCEEFF"/>
<path fill-rule="evenodd" clip-rule="evenodd" d="M440.245 455.619L484.767 634.86H495.168L450.646 455.619H440.245Z" fill="#DCEEFF"/>
<path fill-rule="evenodd" clip-rule="evenodd" d="M309.036 435.644V437.016C309.036 448.468 318.316 457.744 329.755 457.744H492.045C517.079 457.744 536.344 434.751 532.889 408.987L514.566 265.435C512.98 253.546 503.203 244.699 491.65 244.699H443.55C432.004 244.699 422.227 253.546 420.632 265.435L402.309 408.987C402.169 410.012 402.07 411.037 402.012 412.055L401.913 412.038C401.913 412.038 398.525 435.644 367.02 435.644H309.036Z" fill="#DCEEFF"/>
<path fill-rule="evenodd" clip-rule="evenodd" d="M482.644 434.825H376.552C399.238 430.674 401.916 412.038 401.916 412.038L402.014 412.054C402.073 411.037 402.172 410.012 402.312 408.987L420.635 265.435C422.229 253.546 432.006 244.699 443.552 244.699H489.998C496.338 244.699 501.653 245.963 506.394 250.21L523.487 386.068C526.942 411.831 507.677 434.825 482.644 434.825" fill="#ECF6FF"/>
<path d="M306.538 568.897C300.92 571.693 299.002 574.461 298.703 576.881C298.265 580.953 299.215 584.226 301.48 589.607C305.865 600.37 309.593 611.278 312.589 622.477C313.466 622.287 314.342 622.088 315.215 621.878C313.384 628.87 313.448 634.217 313.448 634.217C395.562 634.217 435.933 634.217 434.564 634.217C432.51 634.217 417.661 593.949 365.264 589.857C363.758 589.737 362.297 589.661 360.877 589.626C360.557 588.29 360.006 587.084 359.007 585.261C361.202 579.872 362.893 567.241 363.466 561.981C363.466 561.765 363.393 561.549 363.319 561.333C363.024 560.756 362.214 560.468 361.551 560.756L344.964 568.897C342.132 567.86 339.136 566.916 335.975 565.973C332.982 565.056 329.989 564.275 327.174 563.558L321.237 548.107C321.017 547.515 320.287 547.145 319.703 547.441C319.484 547.515 319.338 547.663 319.192 547.885C316.119 552.227 308.569 563.299 306.538 568.897Z" fill="#FFCB3D"/>
<path d="M437.711 629.257C438.33 625.339 436.68 622.956 432.763 622.106C416.608 621.21 402.233 622.411 389.638 625.708C377.044 629.006 369.709 631.884 367.633 634.344H432.763C435.528 634.344 437.711 632.1 437.711 629.257ZM309.404 602.755C307.52 600.569 301.725 591.169 301.725 591.169C301.725 591.169 308.1 610.553 311.939 622.576C311.722 621.556 314.764 629.718 315.127 627.605V627.532C315.634 625.127 317.59 623.378 320.053 623.232C322.371 623.087 324.834 623.014 327.442 623.014C330.774 623.014 334.179 623.232 337.511 623.67L342.365 608.876C337.656 611.281 332.295 612.156 327.079 611.718C325.268 611.573 323.53 611.208 321.791 610.698C317.01 609.314 312.736 606.472 309.404 602.755ZM326.83 584.868C325.802 586.022 324.128 586.42 322.676 585.763C321.355 584.993 320.654 583.504 320.934 581.99C321.052 581.352 320.631 580.74 319.994 580.622C319.358 580.504 318.746 580.925 318.628 581.563C318.162 584.085 319.351 586.577 321.561 587.83L321.642 587.871C323.606 588.791 325.823 588.535 327.502 587.381C328.027 588.642 329.072 589.72 330.48 590.358C333.311 591.435 336.484 590.374 337.912 587.87C338.233 587.307 338.037 586.589 337.475 586.268C336.913 585.946 336.197 586.142 335.876 586.705C335.032 588.186 333.085 588.837 331.38 588.191C330.09 587.605 329.352 586.408 329.485 585.235C329.489 585.227 329.493 585.219 329.497 585.212C329.836 584.621 329.904 583.883 329.836 583.218C329.769 582.701 329.497 582.258 329.158 582.036C328.479 581.519 327.461 581.815 327.054 582.553C326.695 583.264 326.666 584.129 326.83 584.868ZM346.628 584.901C345.804 586.452 346.56 588.668 347.383 588.816C348.001 588.89 348.757 588.077 349.031 587.56C349.374 586.969 349.443 586.231 349.374 585.566C349.306 585.049 349.031 584.606 348.688 584.384C348.001 583.867 347.04 584.163 346.628 584.901ZM311.432 572.378C310.67 573.929 311.363 575.997 312.195 576.292C312.819 576.366 313.581 575.554 313.859 575.037C314.205 574.446 314.275 573.707 314.205 573.043C314.136 572.526 313.859 572.083 313.512 571.861C312.819 571.344 311.848 571.639 311.432 572.378Z" fill="#EF9028"/>
<path fill-rule="evenodd" clip-rule="evenodd" d="M351.007 194.696C350.088 216.813 338.383 230.066 337.29 250.707C335.883 277.256 351.114 274.45 349.96 296.236C349.362 307.527 449.987 334.782 478.346 299.279C496.543 276.498 478.494 273.658 480.13 242.749C481.751 212.153 459.715 207.561 460.569 191.43C461.706 169.965 444.454 141.364 416.29 139.868C381.987 138.047 352.396 161.268 351.007 194.696Z" fill="#19141E"/>
<path fill-rule="evenodd" clip-rule="evenodd" d="M402.287 246.625C402.287 246.625 412.373 247.46 416.805 245.337L402.471 253.306L402.287 246.625Z" fill="#CF3E83"/>
<path d="M425.392 227.768C421.95 232.665 422.896 239.409 424.497 243.405C425.037 244.777 428.412 256.224 428.965 256.764C431.111 258.857 402.915 269.403 402.915 269.403L402.287 246.625C394.273 246.663 384.919 245.744 379.951 242.047C365.152 231.036 366.121 195.625 366.466 193.869L380.095 180.165C380.095 180.165 399.971 172.239 402.722 176.2C407.753 183.456 418.738 215.311 428.077 212.237C428.077 212.237 427.437 202.481 435.532 202.922C441.564 203.25 442.941 208.174 442.789 210.967C442.275 220.397 430.015 221.169 425.392 227.768" fill="#E576C6"/>
<path fill-rule="evenodd" clip-rule="evenodd" d="M382.143 211.155L375.618 224.858L382.332 225.079L382.143 211.155Z" fill="#2F2F3D"/>
<path fill-rule="evenodd" clip-rule="evenodd" d="M388.265 212.089C388.261 214.895 389.792 217.163 391.685 217.154C393.578 217.146 395.116 214.863 395.121 212.057C395.126 209.251 393.595 206.983 391.701 206.991C389.808 207 388.27 209.283 388.265 212.089" fill="#2F2F3D"/>
<path fill-rule="evenodd" clip-rule="evenodd" d="M370.565 210.702C370.56 213.508 372.091 215.776 373.985 215.768C375.878 215.759 377.416 213.476 377.421 210.67C377.426 207.864 375.895 205.596 374.001 205.605C372.108 205.613 370.57 207.896 370.565 210.702" fill="#2F2F3D"/>
<path fill-rule="evenodd" clip-rule="evenodd" d="M377.637 157.015C376.97 156.269 376.264 155.558 375.52 154.885C373.85 156.317 372.267 157.845 370.789 159.47C362.834 168.196 357.75 179.538 357.063 192.14C357.045 192.459 357.029 192.77 357.018 193.089H357.011L356.454 203.3C356.849 203.306 357.238 203.297 357.635 203.281C365.381 202.933 372.385 199.524 377.327 194.197C379.159 192.218 380.71 189.973 381.916 187.525C382.106 187.162 382.274 186.783 382.443 186.42C383.282 184.483 383.907 182.431 384.287 180.294C410.763 217.671 428.077 212.237 428.077 212.237L425.567 192.688L444.86 171.945C444.86 171.945 389.838 148.182 377.637 157.015V157.015Z" fill="#19141E"/>
<path fill-rule="evenodd" clip-rule="evenodd" d="M377.637 157.015C376.97 156.269 376.264 155.558 375.52 154.885C373.85 156.317 372.267 157.845 370.789 159.47C362.834 168.196 357.75 179.538 357.063 192.14C357.045 192.459 357.029 192.77 357.018 193.089H357.011L356.454 203.3C356.849 203.306 357.238 203.297 357.635 203.281C365.381 202.933 372.385 199.524 377.327 194.197C379.159 192.218 380.71 189.973 381.916 187.525C382.106 187.162 382.274 186.783 382.443 186.42C383.282 184.483 383.907 182.431 384.287 180.294C410.763 217.671 428.077 212.237 428.077 212.237L425.567 192.688L444.86 171.945C444.86 171.945 389.838 148.182 377.637 157.015V157.015Z" fill="#19141E"/>
<path d="M383.622 231.877C383.622 231.877 387.917 233.518 392.555 228.883" stroke="#2F2F3D" stroke-width="3"/>
<path opacity="0.396996" fill-rule="evenodd" clip-rule="evenodd" d="M402.304 246.626C402.304 246.626 412.39 247.46 416.821 245.337L402.488 253.307L402.304 246.626Z" fill="#121212"/>
<path fill-rule="evenodd" clip-rule="evenodd" d="M442.723 379.604L448.129 379.525C448.129 379.525 448.121 379.44 448.114 379.26C446.252 379.392 444.452 379.501 442.723 379.604" fill="#C83820"/>
<path d="M332.567 438.161L350.414 440.396L379.157 395.462L380.206 380.526L423.993 379.877L442.684 379.604H442.723C444.452 379.501 446.252 379.393 448.113 379.26C471.654 377.617 504.27 373.042 506.508 360.373C510.568 337.429 479.853 292.902 476.223 287.741C475.996 287.42 475.88 287.248 475.88 287.248C470.732 279.897 465.552 274.181 460.717 271.139C451.313 265.219 442.496 263.92 434.117 263.944L431.872 247.686L397.691 252.401L399.553 265.915C389.515 266.877 382.686 268.839 376.294 274.704C355.772 293.536 354.262 364.065 354.262 364.065L332.567 438.161Z" fill="#CE3D29"/>
<path fill-rule="evenodd" clip-rule="evenodd" d="M423.993 379.877V380.19C423.993 380.19 431.832 380.206 442.684 379.603L423.993 379.877Z" fill="#C83820"/>
<path opacity="0.201149" d="M380.834 380.345C378.324 348.484 360.952 341.747 373.47 306.014" stroke="#121212" stroke-width="3"/>
<path fill-rule="evenodd" clip-rule="evenodd" d="M351.279 419.762L416.557 412.241C418.695 411.994 420.103 409.894 419.517 407.825L393.724 316.738C393.258 315.091 391.667 314.026 389.966 314.222L324.688 321.742C322.55 321.989 321.142 324.09 321.729 326.159L347.521 417.246C347.987 418.892 349.579 419.958 351.279 419.762" fill="#CA856A"/>
<path d="M409.246 385.723C409.122 385.756 408.996 385.79 408.869 385.826C404.334 387.063 399.698 387.811 393.251 386.962C389.104 386.42 385.538 385.712 385.578 385.05C385.693 383.379 387.706 383.004 387.706 383.004L391.578 383.191L395.304 382.971C395.304 382.971 378.187 379.735 378.187 379.234C378.241 377.469 381.05 376.753 381.05 376.753C381.05 376.753 375.164 375.817 375.232 374.881C375.392 372.501 378.02 372.321 378.02 372.321C378.02 372.321 377.291 371.692 377.364 371.11C377.652 368.763 381.839 368.375 383.833 368.088C383.833 368.088 390.615 367.995 392.635 367.493C397.948 366.167 401.11 364.983 403.093 363.994L389.839 317.185C389.372 315.539 387.78 314.474 386.08 314.669L320.802 322.191C318.665 322.436 317.257 324.538 317.843 326.607L343.635 417.693C344.101 419.34 345.693 420.405 347.394 420.21L412.672 412.689C414.809 412.442 416.217 410.341 415.631 408.272L409.246 385.723V385.723Z" fill="#FCBDA4"/>
<path fill-rule="evenodd" clip-rule="evenodd" d="M378.188 379.234C378.241 377.469 381.05 376.753 381.05 376.753C381.05 376.753 375.165 375.817 375.232 374.881C375.392 372.501 378.02 372.321 378.02 372.321C378.02 372.321 377.291 371.692 377.364 371.11C377.631 368.937 381.242 368.443 383.358 368.154C383.526 368.131 383.686 368.11 383.833 368.088C383.833 368.088 390.615 367.995 392.635 367.493C402.709 364.979 405.05 362.974 406.287 361.844C406.324 361.809 406.361 361.776 406.397 361.743C406.499 361.649 406.593 361.562 406.689 361.483C406.619 361.408 406.54 361.282 406.458 361.151C406.342 360.966 406.218 360.77 406.105 360.688L404.384 354.383C405.644 354.519 406.876 354.562 408.096 354.604C409.81 354.663 411.501 354.721 413.216 355.037C417.892 355.9 420.661 356.984 420.661 356.984L426.627 359.022L430.954 375.028C429.316 376.486 425.39 379.36 422.727 380.811C417.585 383.61 415.321 384.18 411.846 385.054C411.262 385.2 410.644 385.356 409.972 385.532C409.896 385.552 409.819 385.572 409.742 385.592C409.459 385.666 409.168 385.742 408.869 385.826C404.334 387.063 399.698 387.811 393.251 386.962C389.104 386.42 385.539 385.712 385.578 385.05C385.693 383.379 387.706 383.004 387.706 383.004L391.578 383.191L395.304 382.971C395.304 382.971 378.188 379.735 378.188 379.234ZM323.051 450.454C323.779 449.025 328.775 443.026 332.877 438.2L349.959 440.34C351.915 451.871 343.788 468.351 343.788 468.351C343.788 468.351 348.015 465.773 348.856 468.027C349.231 469.031 350.079 477.044 334.244 477.584C332.563 477.642 328.519 474.224 328.519 474.224C328.519 474.224 331.468 479.852 326.953 480.958C326.953 480.958 319.675 470.059 319.564 467.634C319.453 465.209 321.788 452.933 323.051 450.454Z" fill="#E576C6"/>
<path opacity="0.148065" d="M340.556 446.356C340.556 446.356 338.334 454.747 330.708 457.361C328.041 458.275 328.707 469.067 322.172 467.776" stroke="#121212" stroke-width="3"/>
<path opacity="0.200498" d="M448.96 312.332L465.437 339.602L424.47 355.805" stroke="#121212" stroke-width="3"/>
<path fill-rule="evenodd" clip-rule="evenodd" d="M205.635 526.107L213.702 510.239L233.115 513.162L206.71 556.427L148.792 518.006C168.726 513.561 205.635 526.107 205.635 526.107ZM296.333 609.743L294.313 592.126L312.053 583.894L314.675 634.351L244.64 634.229C258.764 619.588 296.333 609.743 296.333 609.743Z" fill="#19141E"/>
<path fill-rule="evenodd" clip-rule="evenodd" d="M211.659 512.489L231.333 516.596L220.005 534.762L203.692 524.823L211.659 512.489ZM294.293 595.72L312.902 588.328L313.474 609.647L294.452 610.345L294.293 595.72Z" fill="#E576C6"/>
<path d="M266.172 495.661L275.803 600.156H320.412L318.432 448.435L403.579 449.022C427.87 449.022 451.364 428.17 449.679 403.937L447.031 379.264L316.999 340.866C292.927 335.425 284.581 342.613 268.974 370.382L200.068 511.565L237.921 536.85L266.172 495.661Z" fill="#2F2F3D"/>
<path opacity="0.150484" fill-rule="evenodd" clip-rule="evenodd" d="M306.135 388.248V388.248L403.579 449.022L318.432 448.435L320.412 600.157H275.803L260.509 434.226C256.736 404.035 275.639 388.248 306.135 388.248" fill="#18181C"/>
<path d="M10.9296 370.158V629.558C10.9296 632.363 8.48294 634.637 5.46481 634.637C2.44668 634.637 0 632.363 0 629.558L0 365.442C0 362.998 1.85751 360.957 4.33207 360.472C5.03213 360.169 5.81274 360 6.63584 360H471.145C474.163 360 476.61 362.274 476.61 365.079C476.61 367.884 474.163 370.158 471.145 370.158H10.9296Z" fill="#B6D4FF"/>
<path d="M122.79 349.272L130.288 318.931H74.0045C68.1571 318.931 63.3222 314.474 63.3222 309.078V223.141C63.2452 217.668 68.0011 213.211 73.9265 213.211H245.218C251.066 213.211 255.899 217.668 255.899 223.063V309.078C255.899 314.474 251.066 318.931 245.218 318.931H176.627L173.532 349.272H193.839C196.958 349.272 199.375 351.775 199.375 354.824C199.375 357.952 196.88 360.376 193.839 360.376H106.907C103.789 360.376 101.372 357.874 101.372 354.824C101.216 351.775 103.789 349.272 106.907 349.272H122.79Z" fill="#2C2C38"/>
<path d="M179.463 0H50.5605C49.7709 0 49.1309 0.640211 49.1309 1.42995V146.57C49.1309 147.36 49.7709 148 50.5605 148H179.463C180.253 148 180.893 147.36 180.893 146.57V1.42995C180.893 0.640211 180.253 0 179.463 0Z" fill="#F2F6FB"/>
<path d="M49.1309 1.43193C49.1309 0.641095 49.7701 0 50.5601 0H179.463C180.253 0 180.893 0.638861 180.893 1.43193V9.29469H49.1309V1.43193Z" fill="#E1E5F0"/>
<path d="M56.5175 6.91147C57.5702 6.91147 58.4236 6.05786 58.4236 5.00487C58.4236 3.95188 57.5702 3.09827 56.5175 3.09827C55.4647 3.09827 54.6113 3.95188 54.6113 5.00487C54.6113 6.05786 55.4647 6.91147 56.5175 6.91147Z" fill="#F1452D"/>
<path d="M62.9501 6.91147C64.0028 6.91147 64.8562 6.05786 64.8562 5.00487C64.8562 3.95188 64.0028 3.09827 62.9501 3.09827C61.8974 3.09827 61.0439 3.95188 61.0439 5.00487C61.0439 6.05786 61.8974 6.91147 62.9501 6.91147Z" fill="#FFCB3D"/>
<path d="M69.1454 6.91147C70.1981 6.91147 71.0515 6.05786 71.0515 5.00487C71.0515 3.95188 70.1981 3.09827 69.1454 3.09827C68.0927 3.09827 67.2393 3.95188 67.2393 5.00487C67.2393 6.05786 68.0927 6.91147 69.1454 6.91147Z" fill="#80BF6E"/>
<path d="M162.892 88.8953H67.3466C66.8203 88.8953 66.3936 89.3221 66.3936 89.8486V136.56C66.3936 137.087 66.8203 137.514 67.3466 137.514H162.892C163.418 137.514 163.845 137.087 163.845 136.56V89.8486C163.845 89.3221 163.418 88.8953 162.892 88.8953Z" fill="#E1E5F0"/>
<path d="M127.469 107.914H76.1621C75.6357 107.914 75.209 108.341 75.209 108.867V113.189C75.209 113.715 75.6357 114.142 76.1621 114.142H127.469C127.995 114.142 128.422 113.715 128.422 113.189V108.867C128.422 108.341 127.995 107.914 127.469 107.914Z" fill="white"/>
<path d="M135.97 107.914H151.916C153.635 107.914 155.029 109.308 155.029 111.028C155.029 112.748 153.635 114.142 151.916 114.142H135.97C134.251 114.142 132.857 112.748 132.857 111.028C132.857 109.308 134.251 107.914 135.97 107.914ZM69.9676 71.736H80.9279C82.9017 71.736 84.5019 73.3365 84.5019 75.3108C84.5019 77.2852 82.9017 78.8857 80.9279 78.8857H69.9676C67.9937 78.8857 66.3936 77.2852 66.3936 75.3108C66.3936 73.3365 67.9937 71.736 69.9676 71.736ZM104.04 71.736H115C116.974 71.736 118.574 73.3365 118.574 75.3108C118.574 77.2852 116.974 78.8857 115 78.8857H104.04C102.066 78.8857 100.466 77.2852 100.466 75.3108C100.466 73.3365 102.066 71.736 104.04 71.736ZM138.35 71.736H149.311C151.284 71.736 152.885 73.3365 152.885 75.3108C152.885 77.2852 151.284 78.8857 149.311 78.8857H138.35C136.376 78.8857 134.776 77.2852 134.776 75.3108C134.776 73.3365 136.376 71.736 138.35 71.736Z" fill="#6091E7"/>
<path d="M101.378 97.2368H128.86C129.843 97.2368 130.639 98.0335 130.639 99.0163C130.639 99.999 129.843 100.796 128.86 100.796H101.378C100.395 100.796 99.5985 99.999 99.5985 99.0163C99.5985 98.0335 100.395 97.2368 101.378 97.2368ZM96.9431 121.26H133.295C134.277 121.26 135.074 122.057 135.074 123.039C135.074 124.022 134.277 124.819 133.295 124.819H96.9431C95.9606 124.819 95.1641 124.022 95.1641 123.039C95.1641 122.057 95.9606 121.26 96.9431 121.26ZM105.812 127.043H124.426C125.408 127.043 126.205 127.84 126.205 128.823C126.205 129.806 125.408 130.602 124.426 130.602H105.812C104.829 130.602 104.033 129.806 104.033 128.823C104.033 127.84 104.829 127.043 105.812 127.043Z" fill="#F2F6FB"/>
<path d="M66.3936 20.4977C66.3936 19.9703 66.8213 19.5427 67.3483 19.5427H94.5074C95.0347 19.5427 95.4621 19.9706 95.4621 20.4977V47.6634C95.4621 48.1908 95.0344 48.6184 94.5074 48.6184H67.3483C66.821 48.6184 66.3936 48.1905 66.3936 47.6634V20.4977ZM100.704 20.4977C100.704 19.9703 101.132 19.5427 101.659 19.5427H128.818C129.345 19.5427 129.773 19.9706 129.773 20.4977V47.6634C129.773 48.1908 129.345 48.6184 128.818 48.6184H101.659C101.131 48.6184 100.704 48.1905 100.704 47.6634V20.4977ZM134.776 20.4977C134.776 19.9703 135.204 19.5427 135.731 19.5427H162.89C163.417 19.5427 163.845 19.9706 163.845 20.4977V47.6634C163.845 48.1908 163.417 48.6184 162.89 48.6184H135.731C135.204 48.6184 134.776 48.1905 134.776 47.6634V20.4977Z" fill="#E1E5F0"/>
<path d="M68.4118 51.24H89.3933C90.508 51.24 91.4116 52.1438 91.4116 53.2587C91.4116 54.3737 90.508 55.2775 89.3933 55.2775H68.4118C67.2972 55.2775 66.3936 54.3737 66.3936 53.2587C66.3936 52.1438 67.2972 51.24 68.4118 51.24ZM68.4118 57.8009H79.3861C80.5008 57.8009 81.4044 58.7048 81.4044 59.8197C81.4044 60.9346 80.5008 61.8385 79.3861 61.8385H68.4118C67.2972 61.8385 66.3936 60.9346 66.3936 59.8197C66.3936 58.7048 67.2972 57.8009 68.4118 57.8009ZM68.4118 64.3619H84.3897C85.5044 64.3619 86.408 65.2657 86.408 66.3807C86.408 67.4956 85.5044 68.3994 84.3897 68.3994H68.4118C67.2972 68.3994 66.3936 67.4956 66.3936 66.3807C66.3936 65.2657 67.2972 64.3619 68.4118 64.3619ZM102.722 51.24H123.704C124.818 51.24 125.722 52.1438 125.722 53.2587C125.722 54.3737 124.818 55.2775 123.704 55.2775H102.722C101.608 55.2775 100.704 54.3737 100.704 53.2587C100.704 52.1438 101.608 51.24 102.722 51.24ZM102.722 57.8009H113.697C114.811 57.8009 115.715 58.7048 115.715 59.8197C115.715 60.9346 114.811 61.8385 113.697 61.8385H102.722C101.608 61.8385 100.704 60.9346 100.704 59.8197C100.704 58.7048 101.608 57.8009 102.722 57.8009ZM102.722 64.3619H118.7C119.815 64.3619 120.718 65.2657 120.718 66.3807C120.718 67.4956 119.815 68.3994 118.7 68.3994H102.722C101.608 68.3994 100.704 67.4956 100.704 66.3807C100.704 65.2657 101.608 64.3619 102.722 64.3619ZM136.794 51.24H157.776C158.891 51.24 159.794 52.1438 159.794 53.2587C159.794 54.3737 158.891 55.2775 157.776 55.2775H136.794C135.68 55.2775 134.776 54.3737 134.776 53.2587C134.776 52.1438 135.68 51.24 136.794 51.24ZM136.794 57.8009H147.769C148.883 57.8009 149.787 58.7048 149.787 59.8197C149.787 60.9346 148.883 61.8385 147.769 61.8385H136.794C135.68 61.8385 134.776 60.9346 134.776 59.8197C134.776 58.7048 135.68 57.8009 136.794 57.8009ZM136.794 64.3619H152.772C153.887 64.3619 154.791 65.2657 154.791 66.3807C154.791 67.4956 153.887 68.3994 152.772 68.3994H136.794C135.68 68.3994 134.776 67.4956 134.776 66.3807C134.776 65.2657 135.68 64.3619 136.794 64.3619Z" fill="#D8DEED"/>
<path d="M117.383 26.3349H118.813V24.905C118.813 24.1811 119.399 23.5942 120.123 23.5942C120.847 23.5942 121.434 24.1811 121.434 24.905V26.3349H121.672C122.659 26.3349 123.459 27.1352 123.459 28.1224C123.459 29.1096 122.659 29.9098 121.672 29.9098H117.383V31.9356H113.809V30.744H109.878C109.154 30.744 108.567 30.1571 108.567 29.4332C108.567 28.7092 109.154 28.1224 109.878 28.1224H113.809V24.905C113.809 23.9178 114.609 23.1176 115.596 23.1176C116.583 23.1176 117.383 23.9178 117.383 24.905V26.3349ZM79.3726 34.3188C75.9253 29.3048 74.7491 26.4598 75.8439 25.7838C76.6939 25.259 77.9845 26.7973 79.7158 30.3987C79.4948 25.8647 79.9386 23.5481 81.0474 23.4489C82.0935 23.3553 82.5278 25.331 82.3504 29.3762C84.1797 26.3146 85.5837 25.0838 86.5625 25.6837C87.9283 26.5207 86.5819 29.3991 82.5233 34.3188H84.9788C87.479 34.3188 89.5058 36.3462 89.5058 38.847V39.4428C89.5058 42.2727 87.2123 44.5668 84.3831 44.5668H77.7116C74.8824 44.5668 72.5889 42.2727 72.5889 39.4428V38.847C72.5889 36.3462 74.6157 34.3188 77.1159 34.3188H79.3726L79.3726 34.3188ZM148.474 31.6989C144.584 31.1901 142.639 29.6503 142.639 27.0792C142.639 24.4597 142.882 23.1391 143.367 23.1176C145.486 23.7014 147.006 24.5648 147.928 25.7077C148.571 26.505 148.89 27.7223 148.885 29.3598C149.085 28.8137 149.353 28.4014 149.689 28.123C150.415 27.5228 151.488 27.1713 152.907 27.0686C153.214 27.1421 153.208 27.9975 152.889 29.6348C152.571 31.272 151.098 31.9904 148.469 31.7898C148.471 31.7593 148.472 31.729 148.474 31.6989ZM150.86 43.1369C148.162 43.1369 145.975 40.9495 145.975 38.2512C145.975 35.5529 148.162 33.3655 150.86 33.3655C153.557 33.3655 155.744 35.5529 155.744 38.2512C155.744 40.9495 153.557 43.1369 150.86 43.1369Z" fill="#FFCB3D"/>
<path d="M120.799 40.9919C120.276 42.9147 118.518 44.3285 116.43 44.3285H115.001C112.913 44.3285 111.155 42.9147 110.632 40.9919H120.799Z" fill="#FFCB3D"/>
<path fill-rule="evenodd" clip-rule="evenodd" d="M111.903 31.9356H119.527C120.317 31.9356 120.957 32.5758 120.957 33.3655V39.8003C120.957 42.3011 118.93 44.3285 116.43 44.3285H115C112.5 44.3285 110.473 42.3011 110.473 39.8003V33.3655C110.473 32.5758 111.113 31.9356 111.903 31.9356ZM89.2755 37.417H72.8192C73.4177 35.6169 75.1153 34.3188 77.1159 34.3188H84.9788C86.9794 34.3188 88.677 35.6169 89.2755 37.417ZM89.4811 38.3703C89.4974 38.527 89.5058 38.686 89.5058 38.847V39.3236H72.5889V38.847C72.5889 38.686 72.5973 38.527 72.6136 38.3703H89.4811ZM89.4383 40.2769C89.04 42.7101 86.9283 44.5668 84.3831 44.5668H77.7116C75.1664 44.5668 73.0547 42.7101 72.6564 40.2769H89.4383ZM155.739 38.0304C155.624 35.4346 153.483 33.3655 150.86 33.3655C148.162 33.3655 145.975 35.5529 145.975 38.2512C145.975 40.9495 148.162 43.1368 150.86 43.1368C152.534 43.1368 154.011 42.2947 154.891 41.0108C153.764 42.9922 151.634 44.3285 149.192 44.3285C145.573 44.3285 142.639 41.3942 142.639 37.7745C142.639 34.1549 145.573 31.2206 149.192 31.2206C152.811 31.2206 155.744 34.1549 155.744 37.7745C155.744 37.8602 155.742 37.9455 155.739 38.0304Z" fill="white"/>
<path d="M242.023 354.631C239.488 357.321 235.739 358.788 231.764 358.268C225.237 357.422 220.589 351.466 221.452 344.905C222.314 338.343 228.273 333.761 234.853 334.621C236.37 334.818 237.786 335.291 239.055 335.984L238.204 330.639H269.738C269.583 331.308 268.596 339.638 266.775 355.629C266.7 356.283 266.536 356.856 266.266 357.399C266.139 357.644 266.027 357.837 265.818 358.172C265.302 358.982 264.518 359.547 263.606 359.962C262.829 360.304 262.217 360.467 259.469 360.582C258.214 360.618 248.427 360.495 247.158 360.582C244.402 360.527 242.915 358.159 242.833 357.854C242.587 357.333 242.318 356.692 242.259 356.112L242.023 354.631ZM232.418 353.111C236.168 353.608 239.589 350.93 240.074 347.242C240.558 343.555 237.886 340.091 234.189 339.608C230.491 339.125 227.017 341.789 226.533 345.476C226.073 349.283 228.72 352.628 232.418 353.111Z" fill="#FFCB3D"/>
<path d="M253.971 331.723C262.679 331.723 269.738 331.237 269.738 330.639C269.738 330.04 262.679 329.554 253.971 329.554C245.263 329.554 238.204 330.04 238.204 330.639C238.204 331.237 245.263 331.723 253.971 331.723Z" fill="#EF9028"/>
<path d="M416.657 17H298.089C295.278 17 293 19.2789 293 22.09V110.91C293 113.721 295.278 116 298.089 116H416.657C419.467 116 421.746 113.721 421.746 110.91V22.09C421.746 19.2789 419.467 17 416.657 17Z" fill="#F2F6FB"/>
<path d="M293 22.0911C293 19.2794 295.28 17 298.087 17H416.913C419.723 17 422 19.2796 422 22.0911V28.1979H293V22.0911Z" fill="#E1E5F0"/>
<path d="M300.506 25.1439C301.841 25.1439 302.923 24.0615 302.923 22.7262C302.923 21.3909 301.841 20.3085 300.506 20.3085C299.171 20.3085 298.089 21.3909 298.089 22.7262C298.089 24.0615 299.171 25.1439 300.506 25.1439Z" fill="#F1452D"/>
<path d="M308.394 25.1439C309.729 25.1439 310.811 24.0615 310.811 22.7262C310.811 21.3909 309.729 20.3085 308.394 20.3085C307.059 20.3085 305.977 21.3909 305.977 22.7262C305.977 24.0615 307.059 25.1439 308.394 25.1439Z" fill="#FFCB3D"/>
<path d="M316.535 25.1439C317.87 25.1439 318.952 24.0615 318.952 22.7262C318.952 21.3909 317.87 20.3085 316.535 20.3085C315.2 20.3085 314.118 21.3909 314.118 22.7262C314.118 24.0615 315.2 25.1439 316.535 25.1439Z" fill="#80BF6E"/>
<path d="M299.361 35.7557H303.025C303.306 35.7557 303.534 35.9836 303.534 36.2647V37.5912C303.534 37.8723 303.306 38.1002 303.025 38.1002H299.361C299.08 38.1002 298.853 37.8723 298.853 37.5912V36.2647C298.853 35.9836 299.08 35.7557 299.361 35.7557ZM398.847 35.7557H415.385C415.666 35.7557 415.894 35.9836 415.894 36.2647V37.5912C415.894 37.8723 415.666 38.1002 415.385 38.1002H398.847C398.566 38.1002 398.338 37.8723 398.338 37.5912V36.2647C398.338 35.9836 398.566 35.7557 398.847 35.7557ZM367.245 35.7557H383.784C384.065 35.7557 384.293 35.9836 384.293 36.2647V37.5912C384.293 37.8723 384.065 38.1002 383.784 38.1002H367.245C366.964 38.1002 366.737 37.8723 366.737 37.5912V36.2647C366.737 35.9836 366.964 35.7557 367.245 35.7557ZM387.142 35.7557H395.488C395.769 35.7557 395.997 35.9836 395.997 36.2647V37.5912C395.997 37.8723 395.769 38.1002 395.488 38.1002H387.142C386.861 38.1002 386.634 37.8723 386.634 37.5912V36.2647C386.634 35.9836 386.861 35.7557 387.142 35.7557Z" fill="#D8DEED"/>
<path d="M305.213 52.7532H339.308C339.589 52.7532 339.817 52.9811 339.817 53.2622V56.9331C339.817 57.2142 339.589 57.4421 339.308 57.4421H305.213C304.932 57.4421 304.704 57.2142 304.704 56.9331V53.2622C304.704 52.9811 304.932 52.7532 305.213 52.7532ZM305.213 60.3727H333.456C333.737 60.3727 333.964 60.6006 333.964 60.8817V64.5527C333.964 64.8338 333.737 65.0617 333.456 65.0617H305.213C304.932 65.0617 304.704 64.8338 304.704 64.5527V60.8817C304.704 60.6006 304.932 60.3727 305.213 60.3727ZM305.213 75.6118H321.751C322.032 75.6118 322.26 75.8397 322.26 76.1208V79.7917C322.26 80.0728 322.032 80.3007 321.751 80.3007H305.213C304.932 80.3007 304.704 80.0728 304.704 79.7917V76.1208C304.704 75.8397 304.932 75.6118 305.213 75.6118ZM305.213 67.9922H339.308C339.589 67.9922 339.817 68.2201 339.817 68.5012V72.1722C339.817 72.4533 339.589 72.6812 339.308 72.6812H305.213C304.932 72.6812 304.704 72.4533 304.704 72.1722V68.5012C304.704 68.2201 304.932 67.9922 305.213 67.9922Z" fill="#E1E5F0"/>
<path d="M341.146 90.2648H372.43C374.068 90.2648 374.696 90.442 375.318 90.7747C375.94 91.1074 376.428 91.5956 376.76 92.2177C377.093 92.8398 377.27 93.4673 377.27 95.1064V97.1456C377.27 98.7846 377.093 99.4121 376.76 100.034C376.428 100.656 375.94 101.145 375.318 101.477C374.696 101.81 374.068 101.987 372.43 101.987H341.146C339.507 101.987 338.88 101.81 338.258 101.477C337.636 101.145 337.148 100.656 336.815 100.034C336.483 99.4121 336.306 98.7846 336.306 97.1456V95.1064C336.306 93.4673 336.483 92.8398 336.815 92.2177C337.148 91.5956 337.636 91.1074 338.258 90.7747C338.88 90.442 339.507 90.2648 341.146 90.2648Z" fill="#80BF6E"/>
<path d="M399.864 64.227V70.5495C399.864 72.2553 398.801 73.7803 397.201 74.3703C393.254 75.8252 389.307 76.5527 385.361 76.5527C381.414 76.5527 377.468 75.8252 373.521 74.3703C371.921 73.7803 370.858 72.2553 370.858 70.5495V64.6045L358.968 60.313C358.528 60.1543 358.185 59.8028 358.038 59.3592C357.771 58.559 358.204 57.6944 359.004 57.4279L382.574 49.5754C384.551 48.9168 386.694 48.9521 388.648 49.6755L409.634 57.4439C410.039 57.5936 410.361 57.9073 410.521 58.3077C410.835 59.0904 410.455 59.9794 409.673 60.2932L399.864 64.227Z" fill="#6091E7"/>
<path opacity="0.176986" d="M399.863 64.2269V70.5495C399.863 72.2553 398.8 73.7803 397.2 74.3702C393.254 75.8252 389.307 76.5527 385.36 76.5527C381.414 76.5527 377.467 75.8252 373.521 74.3702C371.92 73.7803 370.857 72.2553 370.857 70.5495V64.6044L382.348 68.7516C384.461 69.5143 386.78 69.4737 388.865 68.6375L399.863 64.2269Z" fill="#444444"/>
<path d="M404.062 69.7982V62.9073L385.219 58.5945C384.877 58.5161 384.662 58.1749 384.741 57.8324C384.819 57.4898 385.16 57.2757 385.503 57.3541L404.84 61.78C405.129 61.8461 405.334 62.1035 405.334 62.4002V69.7982C406.004 70.0543 406.479 70.703 406.479 71.4627C406.479 72.1175 406.126 72.6898 405.6 72.9994C405.646 73.0825 405.681 73.1559 405.704 73.2197C406.814 76.2388 408.223 79.4401 405.004 79.6037C403.154 79.6977 402.855 77.5444 404.106 73.1436C403.414 72.8996 402.917 72.2391 402.917 71.4627C402.917 70.703 403.392 70.0543 404.062 69.7982Z" fill="#474961"/>
<path d="M312.769 183.709H201.955C197.603 183.709 194.05 180.479 194.05 176.523V110.168C194.05 106.212 197.603 102.982 201.955 102.982H312.769C317.121 102.982 320.674 106.212 320.674 110.168V176.49C320.674 180.479 317.121 183.709 312.769 183.709Z" fill="#F2F6FB"/>
<path d="M194.086 102.547C194.086 98.5296 197.333 95.2727 201.339 95.2727H313.385C317.391 95.2727 320.638 98.5316 320.638 102.547V110.909H194.086V102.547Z" fill="#E1E5F0"/>
<path d="M213.576 140.364H227.537C228.688 140.364 229.622 141.3 229.622 142.455C229.622 143.609 228.688 144.545 227.537 144.545H213.576C212.425 144.545 211.491 143.609 211.491 142.455C211.491 141.3 212.425 140.364 213.576 140.364ZM213.576 163.636H227.537C228.688 163.636 229.622 164.573 229.622 165.727C229.622 166.882 228.688 167.818 227.537 167.818H213.576C212.425 167.818 211.491 166.882 211.491 165.727C211.491 164.573 212.425 163.636 213.576 163.636ZM234.97 140.364H248.931C250.082 140.364 251.016 141.3 251.016 142.455C251.016 143.609 250.082 144.545 248.931 144.545H234.97C233.819 144.545 232.885 143.609 232.885 142.455C232.885 141.3 233.819 140.364 234.97 140.364ZM234.97 163.636H248.931C250.082 163.636 251.016 164.573 251.016 165.727C251.016 166.882 250.082 167.818 248.931 167.818H234.97C233.819 167.818 232.885 166.882 232.885 165.727C232.885 164.573 233.819 163.636 234.97 163.636ZM256.365 140.364H270.325C271.477 140.364 272.41 141.3 272.41 142.455C272.41 143.609 271.477 144.545 270.325 144.545H256.365C255.213 144.545 254.279 143.609 254.279 142.455C254.279 141.3 255.213 140.364 256.365 140.364ZM256.365 163.636H270.325C271.477 163.636 272.41 164.573 272.41 165.727C272.41 166.882 271.477 167.818 270.325 167.818H256.365C255.213 167.818 254.279 166.882 254.279 165.727C254.279 164.573 255.213 163.636 256.365 163.636ZM213.576 128.727H239.503C240.655 128.727 241.588 129.663 241.588 130.818C241.588 131.973 240.655 132.909 239.503 132.909H213.576C212.425 132.909 211.491 131.973 211.491 130.818C211.491 129.663 212.425 128.727 213.576 128.727ZM272.319 128.727H301.51C302.661 128.727 303.595 129.663 303.595 130.818C303.595 131.973 302.661 132.909 301.51 132.909H272.319C271.168 132.909 270.234 131.973 270.234 130.818C270.234 129.663 271.168 128.727 272.319 128.727ZM272.319 152H301.51C302.661 152 303.595 152.936 303.595 154.091C303.595 155.246 302.661 156.182 301.51 156.182H272.319C271.168 156.182 270.234 155.246 270.234 154.091C270.234 152.936 271.168 152 272.319 152ZM246.937 152H252.194C253.346 152 254.279 152.936 254.279 154.091C254.279 155.246 253.346 156.182 252.194 156.182H246.937C245.785 156.182 244.852 155.246 244.852 154.091C244.852 152.936 245.785 152 246.937 152ZM259.628 128.727H264.886C266.037 128.727 266.971 129.663 266.971 130.818C266.971 131.973 266.037 132.909 264.886 132.909H259.628C258.477 132.909 257.543 131.973 257.543 130.818C257.543 129.663 258.477 128.727 259.628 128.727ZM277.759 140.364H301.51C302.661 140.364 303.595 141.3 303.595 142.455C303.595 143.609 302.661 144.545 301.51 144.545H277.759C276.607 144.545 275.674 143.609 275.674 142.455C275.674 141.3 276.607 140.364 277.759 140.364Z" fill="#E1E5F0"/>
<path d="M213.576 152H239.503C240.655 152 241.588 152.936 241.588 154.091C241.588 155.246 240.655 156.182 239.503 156.182H213.576C212.425 156.182 211.491 155.246 211.491 154.091C211.491 152.936 212.425 152 213.576 152ZM259.628 152H264.886C266.037 152 266.971 152.936 266.971 154.091C266.971 155.246 266.037 156.182 264.886 156.182H259.628C258.477 156.182 257.543 155.246 257.543 154.091C257.543 152.936 258.477 152 259.628 152Z" fill="#B476E5"/>
<path d="M246.937 128.727H252.194C253.346 128.727 254.279 129.663 254.279 130.818C254.279 131.973 253.346 132.909 252.194 132.909H246.937C245.785 132.909 244.852 131.973 244.852 130.818C244.852 129.663 245.785 128.727 246.937 128.727ZM277.759 163.636H301.51C302.661 163.636 303.595 164.573 303.595 165.727C303.595 166.882 302.661 167.818 301.51 167.818H277.759C276.607 167.818 275.674 166.882 275.674 165.727C275.674 164.573 276.607 163.636 277.759 163.636Z" fill="#F1452D"/>
<path d="M212.579 84H167.252C163.247 84 160 87.2561 160 91.2727V114.182C160 118.198 163.247 121.455 167.252 121.455H212.579C216.584 121.455 219.831 118.198 219.831 114.182V91.2727C219.831 87.2561 216.584 84 212.579 84Z" fill="#79B768"/>
<path fill-rule="evenodd" clip-rule="evenodd" d="M180.754 93.042C181.382 93.8244 181.259 94.9689 180.478 95.5984L170.502 103.648L180.815 109.315C181.693 109.797 182.015 110.902 181.534 111.783C181.053 112.663 179.951 112.986 179.073 112.504L166.381 105.531C165.851 105.239 165.5 104.701 165.447 104.097C165.393 103.492 165.644 102.9 166.116 102.52L178.205 92.7653C178.985 92.1358 180.127 92.2597 180.754 93.042Z" fill="white"/>
<path fill-rule="evenodd" clip-rule="evenodd" d="M197.285 93.1818C197.836 92.3431 198.961 92.111 199.797 92.6633L212.488 101.045C212.992 101.378 213.298 101.941 213.304 102.546C213.31 103.152 213.014 103.72 212.517 104.063L200.383 112.408C199.557 112.976 198.429 112.766 197.862 111.937C197.296 111.109 197.506 109.978 198.332 109.41L208.241 102.594L197.802 95.7003C196.966 95.148 196.735 94.0204 197.285 93.1818Z" fill="white"/>
<path fill-rule="evenodd" clip-rule="evenodd" d="M192.396 88.9085C193.372 89.1311 193.984 90.1053 193.762 91.0844L188.239 115.452C188.017 116.431 187.045 117.045 186.069 116.822C185.092 116.599 184.481 115.625 184.703 114.646L190.226 90.2784C190.448 89.2992 191.42 88.6859 192.396 88.9085Z" fill="white"/>
<path d="M22.5515 348.692H87.1701C88.7302 348.692 89.995 349.957 89.995 351.519V357.173C89.995 358.734 88.7302 360 87.1701 360H22.5515C20.9913 360 19.7266 358.734 19.7266 357.173V351.519C19.7266 349.957 20.9913 348.692 22.5515 348.692ZM19.0204 303.459H83.639C85.1992 303.459 86.4639 304.724 86.4639 306.286V311.94C86.4639 313.501 85.1992 314.767 83.639 314.767H19.0204C17.4603 314.767 16.1955 313.501 16.1955 311.94V306.286C16.1955 304.724 17.4603 303.459 19.0204 303.459ZM11.6051 326.075H76.2238C77.7839 326.075 79.0486 327.341 79.0486 328.902V334.556C79.0486 336.118 77.7839 337.383 76.2238 337.383H11.6051C10.045 337.383 8.78027 336.118 8.78027 334.556V328.902C8.78027 327.341 10.045 326.075 11.6051 326.075Z" fill="#72A065"/>
<path d="M25.7819 337.383H90.4005C91.9607 337.383 93.2254 338.649 93.2254 340.211V345.865C93.2254 347.426 91.9607 348.692 90.4005 348.692H25.7819C24.2218 348.692 22.957 347.426 22.957 345.865V340.211C22.957 338.649 24.2218 337.383 25.7819 337.383ZM27.9005 314.767H92.5192C94.0793 314.767 95.344 316.033 95.344 317.594V323.248C95.344 324.809 94.0793 326.075 92.5192 326.075H27.9005C26.3404 326.075 25.0757 324.809 25.0757 323.248V317.594C25.0757 316.033 26.3404 314.767 27.9005 314.767Z" fill="#54664F"/>
<path d="M22.3747 307.699H86.4637V310.88H22.3747C21.4971 310.88 20.7857 310.168 20.7857 309.289C20.7857 308.411 21.4971 307.699 22.3747 307.699ZM25.1091 319.007H91.0541V322.188H25.1091V319.007ZM16.1953 330.316H79.0484V333.496H16.1953V330.316ZM22.988 341.624H88.9354V344.804H22.988V341.624ZM27.1416 352.932H89.9947V356.113H27.1416V352.932Z" fill="#F2F6FB"/>
</g>
<defs>
<clipPath id="clip0">
<rect width="541" height="635" fill="white"/>
</clipPath>
</defs>
</svg>
