<svg width="181" height="617" viewBox="0 0 181 617" fill="none" xmlns="http://www.w3.org/2000/svg">
<g clip-path="url(#clip0)">
<path fill-rule="evenodd" clip-rule="evenodd" d="M155.679 51.2132C156.534 71.7911 167.43 84.1225 168.448 103.327C169.757 128.029 155.579 125.418 156.653 145.688C157.21 156.193 63.5367 181.552 37.1373 148.52C20.197 127.324 36.9996 124.681 35.476 95.9234C33.967 67.4561 54.481 63.1829 53.6857 48.1747C52.6275 28.2029 68.6873 1.59243 94.9054 0.20053C126.839 -1.49405 154.386 20.1113 155.679 51.2132Z" fill="#121212"/>
<path fill-rule="evenodd" clip-rule="evenodd" d="M107.941 99.5296C107.941 99.5296 98.5519 100.306 94.4268 98.3306L107.77 105.746L107.941 99.5296Z" fill="#CF3E83"/>
<path d="M86.4323 81.984C89.6369 86.5409 88.7564 92.815 87.2655 96.5331C86.763 97.81 83.6211 108.461 83.1069 108.963C81.1085 110.91 107.356 120.722 107.356 120.722L107.941 99.5293C115.401 99.5642 124.11 98.7093 128.734 95.2699C142.511 85.0246 141.609 52.0775 141.288 50.444L128.6 37.6936C128.6 37.6936 110.097 30.3187 107.536 34.0047C102.853 40.7553 92.6273 70.3941 83.9335 67.5339C83.9335 67.5339 84.5293 58.4564 76.9928 58.8667C71.3776 59.1723 70.0958 63.7533 70.2378 66.3523C70.7163 75.1264 82.1288 75.8445 86.4323 81.984" fill="#E576C6"/>
<path fill-rule="evenodd" clip-rule="evenodd" d="M126.694 66.5269L132.768 79.2766L126.518 79.4825L126.694 66.5269Z" fill="#2F2F3D"/>
<path fill-rule="evenodd" clip-rule="evenodd" d="M120.993 67.3958C120.998 70.0072 119.573 72.1172 117.81 72.1092C116.048 72.1012 114.616 69.9774 114.611 67.3667C114.607 64.7554 116.032 62.6453 117.795 62.6533C119.557 62.6613 120.989 64.7852 120.993 67.3958" fill="#2F2F3D"/>
<path fill-rule="evenodd" clip-rule="evenodd" d="M137.471 66.1055C137.475 68.7169 136.05 70.8269 134.288 70.8189C132.525 70.8109 131.093 68.6871 131.089 66.0764C131.085 63.4651 132.51 61.3551 134.272 61.3631C136.035 61.3711 137.467 63.4949 137.471 66.1055" fill="#2F2F3D"/>
<path fill-rule="evenodd" clip-rule="evenodd" d="M130.889 16.1544C131.509 15.4605 132.167 14.7989 132.86 14.1726C134.414 15.5048 135.887 16.9266 137.264 18.4385C144.668 26.5578 149.402 37.1102 150.041 48.8354C150.058 49.1323 150.073 49.4218 150.083 49.7187H150.09L150.608 59.219C150.24 59.2248 149.878 59.2161 149.509 59.2008C142.298 58.8777 135.777 55.7054 131.177 50.749C129.472 48.9082 128.027 46.8192 126.905 44.5418C126.728 44.2042 126.572 43.8514 126.415 43.513C125.634 41.7112 125.052 39.8023 124.698 37.8137C100.051 72.5897 83.9338 67.5342 83.9338 67.5342L86.2702 49.3449L68.3096 30.0454C68.3096 30.0454 119.53 7.93639 130.889 16.1544V16.1544Z" fill="#19141E"/>
<path fill-rule="evenodd" clip-rule="evenodd" d="M130.889 16.1544C131.509 15.4605 132.167 14.7989 132.86 14.1726C134.414 15.5048 135.887 16.9266 137.264 18.4385C144.668 26.5578 149.402 37.1102 150.041 48.8354C150.058 49.1323 150.073 49.4218 150.083 49.7187H150.09L150.608 59.219C150.24 59.2248 149.878 59.2161 149.509 59.2008C142.298 58.8777 135.777 55.7054 131.177 50.749C129.472 48.9082 128.027 46.8192 126.905 44.5418C126.728 44.2042 126.572 43.8514 126.415 43.513C125.634 41.7112 125.052 39.8023 124.698 37.8137C100.051 72.5897 83.9338 67.5342 83.9338 67.5342L86.2702 49.3449L68.3096 30.0454C68.3096 30.0454 119.53 7.93639 130.889 16.1544V16.1544Z" fill="#121212"/>
<path d="M125.317 85.8072C125.317 85.8072 121.318 87.3345 117.001 83.022" stroke="#2F2F3D" stroke-width="3"/>
<path opacity="0.396996" fill-rule="evenodd" clip-rule="evenodd" d="M107.925 99.5304C107.925 99.5304 98.5362 100.306 94.4111 98.3313L107.754 105.746L107.925 99.5304Z" fill="#121212"/>
<path fill-rule="evenodd" clip-rule="evenodd" d="M130.839 595.694L132.586 580.433L117.238 573.302L115.647 617.01L175.564 616.906C163.344 604.222 130.839 595.694 130.839 595.694ZM41.6324 576.264L24.6508 576.633L24.8226 596.059C24.8226 596.059 8.43857 598.902 2.76172 617.011H45.3583L43.5124 595.193L41.6324 576.264Z" fill="#19141E"/>
<path fill-rule="evenodd" clip-rule="evenodd" d="M43.4749 577.343L26.9099 571.519L24.6914 595.193L43.3812 596.059L43.4749 577.343ZM132.986 583.026L116.886 576.622L116.391 595.09L132.848 595.695L132.986 583.026Z" fill="#E576C6"/>
<path d="M21.0031 580.51C21.7625 556.838 26.6665 407.305 31.7053 318.341C35.197 256.678 61.3279 222.729 66.2319 216.863H128.493C128.607 217.651 136.988 277.02 138.521 401.247C139.898 512.499 138.479 573.309 138.301 580.46L138.301 580.464L140.29 580.461L140.303 590.038L108.062 590.09L108.049 580.512L109.161 580.511L109.161 580.51L92.7887 385.827L87.8847 327.56L50.6612 580.46L50.661 580.462L52.271 580.459L51.7089 590.037L18.3291 590.091L18.8912 580.514L21.0031 580.51L21.0031 580.51Z" fill="#2F2F3D"/>
<path opacity="0.398065" fill-rule="evenodd" clip-rule="evenodd" d="M87.8848 327.562L94.5836 270.563L92.7866 385.826L87.8848 327.562Z" fill="#0A0A0F"/>
<path fill-rule="evenodd" clip-rule="evenodd" d="M158.511 278.116C158.511 278.116 130.235 232.98 128.824 221.786C127.329 209.924 128.671 194.608 128.671 194.608L147.765 183.255L152.597 211.487L173.201 276.077" fill="#E576C6"/>
<path fill-rule="evenodd" clip-rule="evenodd" d="M6.87684 275.539C6.87684 275.539 5.98194 210.117 10.1433 199.344C14.3048 188.57 21.8368 174.125 21.8368 174.125L44.1744 189.042L32.1933 208.42L23.9353 274.514" fill="#E576C6"/>
<path fill-rule="evenodd" clip-rule="evenodd" d="M108.709 124.262L112.051 219.622L96.5415 219.389L97.8813 124.618L97.3432 124.225L97.9032 124.262C97.9032 124.262 89.1224 115.171 85.7139 111.753C87.9566 111.905 90.1702 112.073 92.3474 112.189C98.2745 112.495 103.328 112.698 107.749 113.033C108.301 113.782 109.532 115.825 109.387 119.098C109.262 121.767 109.066 123.062 108.92 123.687C108.818 124.124 108.738 124.233 108.716 124.255L108.709 124.262Z" fill="#CE3D29"/>
<path d="M70.5724 163.655L56.3828 185.128" stroke="#FF9929" stroke-width="3"/>
<path fill-rule="evenodd" clip-rule="evenodd" d="M100.518 127.004C87.766 125.808 82.0827 115.152 80.0082 111.079C83.0996 111.045 86.1153 111.283 89.0642 111.517C90.4349 111.625 91.7912 111.733 93.1339 111.811C94.538 111.892 95.8869 111.967 97.1846 112.038L97.1848 112.038C103.744 112.398 108.995 112.687 113.441 113.485C113.795 114.761 116.439 128.489 100.518 127.004ZM150.663 283.172L165.8 276.798C163.475 274.077 161.677 272.01 161.677 272.01C161.677 272.01 153.448 273.043 151.882 276.722C151.061 278.65 150.702 280.855 150.663 283.172ZM175.986 289.416C175.518 288.498 173.158 285.555 170.484 282.344L151.318 290.044C152.882 298.352 156.685 306.059 156.685 306.059C156.685 306.059 152.751 303.663 151.968 305.759C151.62 306.692 150.83 314.145 165.569 314.647C167.133 314.7 170.897 311.521 170.897 311.521C170.897 311.521 168.153 316.755 172.355 317.784C172.355 317.784 179.128 307.648 179.232 305.393C179.335 303.138 177.162 291.722 175.986 289.416ZM29.1085 283.92L27.0509 277.348L4.48696 279.135C2.93533 283.373 1.13554 288.524 0.467924 291.343C-0.0548913 293.55 0.567682 301.257 1.81574 305.483C2.52205 307.878 4.08394 310.097 4.08394 310.097C4.08394 310.097 5.95894 314.497 6.68928 314.881C8.75433 315.966 9.66671 313.849 9.66671 313.849C9.66671 313.849 11.0589 320.202 12.4767 319.58C13.3512 319.197 14.6356 318.009 14.667 316.427C14.8694 306.361 16.8434 295.845 20.3072 294.03C22.5316 292.864 23.3362 296.82 24.0898 300.526C24.5099 302.592 24.9142 304.58 25.5398 305.558C27.2335 308.206 33.9012 310.094 32.2177 305.464C29.9113 299.118 29.8544 296.453 29.7697 292.478C29.7657 292.29 29.7616 292.099 29.7572 291.905C29.6597 287.601 29.1085 283.92 29.1085 283.92Z" fill="#E576C6"/>
<path opacity="0.146601" d="M159.694 285.605C159.694 285.605 161.763 293.408 168.86 295.839C171.342 296.69 170.722 306.726 176.805 305.525" stroke="#121212" stroke-width="3"/>
<path fill-rule="evenodd" clip-rule="evenodd" d="M84.9068 219.983V118.165H117.954V219.983H84.9068ZM141.279 287.124L173.952 273.364L176.43 279.955L143.197 293.307L141.279 287.124ZM40.2838 269.363L3.42676 272.551L3.54035 279.209L40.2838 276.3V269.363Z" fill="#FFE3C5"/>
<path fill-rule="evenodd" clip-rule="evenodd" d="M27.0507 277.348L40.2836 276.3V269.363L3.42652 272.551L3.42667 272.56L0.490234 272.8C0.490234 272.8 1.41572 215.273 12.4684 183.942C22.139 156.545 39.7815 126.793 53.5582 118.131C54.3817 117.614 55.2046 117.127 56.0201 116.683L53.3041 112.996L83.1803 104.727C83.1803 104.727 82.2628 108.313 85.4012 111.44C85.4614 111.505 85.5284 111.57 85.5972 111.638L85.5975 111.638C85.6358 111.675 85.6748 111.714 85.7135 111.753C89.122 115.171 97.9036 124.262 97.9036 124.262L97.3429 124.225L97.881 124.618L96.5412 219.389L94.6778 351.789L18.3089 349.491L24.1448 300.797C24.5456 302.764 24.9414 304.622 25.5396 305.558C27.2333 308.206 33.901 310.094 32.2175 305.464C29.9111 299.118 29.8543 296.453 29.7695 292.478C29.7655 292.29 29.7614 292.099 29.7571 291.905C29.6595 287.601 29.1083 283.92 29.1083 283.92L27.0507 277.348ZM139.583 287.832L146.406 351.789H116.683L112.051 219.622L126.818 219.837L112.051 219.622L108.709 124.262L108.716 124.254C108.738 124.233 108.818 124.123 108.92 123.687C109.066 123.062 109.262 121.767 109.386 119.098C109.531 115.825 108.301 113.782 107.748 113.033C107.588 112.822 107.486 112.713 107.486 112.713L108.025 107.636L131.588 119.294L130.357 119.942L126.003 122.25L130.358 119.942C130.954 120.407 131.544 120.909 132.126 121.447C151.233 138.96 154.023 202.902 154.023 202.902L176.369 272.342L139.583 287.832ZM124.678 148.029L131.813 214.953L124.678 148.029L119.952 123.127L125.391 122.574L119.952 123.127L124.678 148.029Z" fill="#FF9929"/>
<path fill-rule="evenodd" clip-rule="evenodd" d="M108.716 124.254L108.92 123.687C108.819 124.124 108.738 124.233 108.716 124.254" fill="#CE3D29"/>
<path opacity="0.20459" d="M53.3037 112.994C53.3037 112.994 63.1411 125.59 74.3773 127.828C85.009 129.946 97.9047 124.26 97.9047 124.26" stroke="#121212" stroke-width="3"/>
<path opacity="0.20459" d="M131.588 119.298C131.588 119.298 130.724 125.549 126.637 127.116C119.474 129.86 110.142 123.786 110.142 123.786" stroke="#121212" stroke-width="3"/>
<path opacity="0.201265" d="M139.601 287.964L131.297 169.074" stroke="#121212" stroke-width="3"/>
<path opacity="0.201265" fill-rule="evenodd" clip-rule="evenodd" d="M122.177 174.503C122.101 177.004 120.364 178.98 118.295 178.919C116.226 178.856 114.611 176.778 114.687 174.278C114.762 171.777 116.5 169.801 118.568 169.863C120.637 169.925 122.253 172.003 122.177 174.503" fill="#121212"/>
<path opacity="0.201265" fill-rule="evenodd" clip-rule="evenodd" d="M120.312 141.151C120.236 143.651 118.499 145.628 116.431 145.566C114.362 145.504 112.746 143.426 112.822 140.926C112.897 138.425 114.635 136.448 116.704 136.511C118.772 136.573 120.387 138.651 120.312 141.151" fill="#121212"/>
<path opacity="0.201265" fill-rule="evenodd" clip-rule="evenodd" d="M124.042 207.856C123.966 210.356 122.229 212.333 120.16 212.271C118.092 212.208 116.477 210.13 116.552 207.63C116.627 205.13 118.365 203.153 120.433 203.216C122.502 203.277 124.118 205.355 124.042 207.856" fill="#121212"/>
<path opacity="0.196568" d="M70.5725 159.113L56.3829 201.521L50.0683 268.281L40.2842 269.363" stroke="#121212" stroke-width="3"/>
<path opacity="0.201265" d="M51.0985 257.38L8.99219 261.083" stroke="#121212" stroke-width="3"/>
<path opacity="0.201265" d="M139.601 278.116L166.423 266.007" stroke="#121212" stroke-width="3"/>
</g>
<defs>
<clipPath id="clip0">
<rect width="181" height="617" fill="white"/>
</clipPath>
</defs>
</svg>
