<svg width="466" height="466" viewBox="0 0 466 466" fill="none" xmlns="http://www.w3.org/2000/svg">
<mask id="mask0" mask-type="alpha" maskUnits="userSpaceOnUse" x="0" y="0" width="466" height="466">
<circle cx="233" cy="233" r="233" fill="#B6D4FF"/>
</mask>
<g mask="url(#mask0)">
<circle cx="233" cy="233" r="233" fill="#ECF6FF"/>
<path fill-rule="evenodd" clip-rule="evenodd" d="M148.768 122.239C147.594 150.521 132.632 167.469 131.235 193.864C129.437 227.813 148.905 224.225 147.43 252.084C146.665 266.522 275.284 301.375 311.532 255.976C334.792 226.844 311.721 223.212 313.813 183.688C315.885 144.563 287.718 138.69 288.81 118.063C290.263 90.6137 268.212 54.0407 232.213 52.1277C188.367 49.7987 150.543 79.4927 148.768 122.239Z" fill="#19141E"/>
<path fill-rule="evenodd" clip-rule="evenodd" d="M214.315 188.644C214.315 188.644 227.207 189.711 232.871 186.996L214.55 197.187L214.315 188.644Z" fill="#CF3E83"/>
<path d="M243.848 164.53C239.448 170.793 240.657 179.416 242.704 184.526C243.394 186.281 247.708 200.919 248.414 201.609C251.158 204.285 215.118 217.771 215.118 217.771L214.315 188.644C204.072 188.692 192.115 187.517 185.765 182.79C166.849 168.709 168.087 123.427 168.528 121.182L185.949 103.658C185.949 103.658 211.355 93.5217 214.871 98.5877C221.302 107.866 235.342 148.601 247.279 144.67C247.279 144.67 246.461 132.194 256.809 132.758C264.519 133.178 266.279 139.474 266.084 143.046C265.427 155.105 249.757 156.092 243.848 164.53" fill="#E576C6"/>
<path fill-rule="evenodd" clip-rule="evenodd" d="M188.567 143.286L180.227 160.809L188.809 161.092L188.567 143.286Z" fill="#2F2F3D"/>
<path fill-rule="evenodd" clip-rule="evenodd" d="M196.392 144.48C196.386 148.069 198.343 150.969 200.763 150.958C203.183 150.947 205.149 148.028 205.155 144.44C205.161 140.851 203.204 137.951 200.784 137.962C198.364 137.973 196.398 140.892 196.392 144.48" fill="#2F2F3D"/>
<path fill-rule="evenodd" clip-rule="evenodd" d="M173.768 142.707C173.762 146.296 175.719 149.196 178.139 149.185C180.559 149.174 182.525 146.255 182.531 142.667C182.537 139.078 180.58 136.178 178.16 136.189C175.74 136.2 173.774 139.119 173.768 142.707" fill="#2F2F3D"/>
<path fill-rule="evenodd" clip-rule="evenodd" d="M182.807 74.0543C181.955 73.1006 181.051 72.1913 180.1 71.3306C177.966 73.1616 175.943 75.1156 174.053 77.1936C163.886 88.3526 157.387 102.856 156.509 118.971C156.486 119.379 156.465 119.777 156.452 120.185H156.442L155.73 133.242C156.236 133.25 156.733 133.238 157.24 133.217C167.141 132.773 176.094 128.413 182.41 121.601C184.752 119.071 186.735 116.2 188.276 113.07C188.519 112.606 188.734 112.121 188.949 111.656C190.022 109.179 190.821 106.556 191.307 103.822C225.149 151.618 247.278 144.67 247.278 144.67L244.07 119.671L268.731 93.1459C268.731 93.1459 198.403 62.7596 182.807 74.0543V74.0543Z" fill="#19141E"/>
<path fill-rule="evenodd" clip-rule="evenodd" d="M182.807 74.0543C181.955 73.1006 181.051 72.1913 180.1 71.3306C177.966 73.1616 175.943 75.1156 174.053 77.1936C163.886 88.3526 157.387 102.856 156.509 118.971C156.486 119.379 156.465 119.777 156.452 120.185H156.442L155.73 133.242C156.236 133.25 156.733 133.238 157.24 133.217C167.141 132.773 176.094 128.413 182.41 121.601C184.752 119.071 186.735 116.2 188.276 113.07C188.519 112.606 188.734 112.121 188.949 111.656C190.022 109.179 190.821 106.556 191.307 103.822C225.149 151.618 247.278 144.67 247.278 144.67L244.07 119.671L268.731 93.1459C268.731 93.1459 198.403 62.7596 182.807 74.0543V74.0543Z" fill="#19141E"/>
<path d="M190.457 169.784C190.457 169.784 195.947 171.883 201.875 165.956" stroke="#2F2F3D" stroke-width="3"/>
<path opacity="0.396996" fill-rule="evenodd" clip-rule="evenodd" d="M214.337 188.645C214.337 188.645 227.229 189.711 232.893 186.997L214.572 197.188L214.337 188.645Z" fill="#121212"/>
<path fill-rule="evenodd" clip-rule="evenodd" d="M199.644 218.189C205.66 208.011 213.714 202.319 213.714 202.319L250.522 200.543C250.522 200.543 247.387 208.623 244.068 219.013C237.507 239.553 221.943 244.169 208.382 244.146C195.715 244.126 191.411 232.113 199.644 218.189ZM99.5002 270C99.8642 266.435 98.6284 267.186 97.1016 268.115C95.8586 268.871 94.4226 269.744 93.5002 268.5C89.7292 263.414 96.0002 274.5 96.0002 274.5H92.5002L92.4488 274.485C92.5572 274.882 92.1854 275.38 91.0002 276C90.4751 276.275 90.1 276.47 89.8423 276.603C90.4633 276.297 91.3663 275.885 90.5002 276.5C90.2521 276.676 89.9531 276.74 89.621 276.717C89.4033 276.828 89.3372 276.86 89.3674 276.844C89.3824 276.835 89.4211 276.815 89.4767 276.786C89.5153 276.767 89.562 276.743 89.6147 276.716C88.678 276.647 87.4784 275.886 86.4074 275.001C86.5551 275.941 85.9014 276.734 85.3386 277.417C84.4373 278.51 83.7693 279.32 87.0002 280C87.3311 280.534 87.6802 281.099 88.0466 281.692C100.877 302.44 134.892 357.448 151.957 353.59C170.191 349.468 187.108 285.73 187.108 285.73L156.353 270.748L142.962 312.021L99.5002 270ZM85.5002 273.5C86.0678 274.039 86.3347 274.538 86.4074 275.001C84.0196 273.027 82.271 270.433 85.5002 273.5ZM89.6147 276.716L89.621 276.717C89.6823 276.685 89.7557 276.647 89.8423 276.603C89.7598 276.643 89.6824 276.682 89.6147 276.716ZM87.5002 273C87.5002 273 92.1244 273.295 92.4488 274.485L87.5002 273ZM317.955 417.542L310.469 436.686C310.469 436.686 309.332 441.615 308.697 447.44C308.668 447.702 308.64 447.959 308.613 448.212L308.612 448.218C308.033 453.596 307.644 457.204 303.961 465.548C301.273 471.638 309.972 469.819 312.439 466.417C313.349 465.161 314.098 462.513 314.877 459.759C316.274 454.82 317.767 449.543 320.456 451.37C324.643 454.217 325.904 468.693 324.968 482.362C324.821 484.509 326.312 486.262 327.378 486.88C329.107 487.881 331.63 479.421 331.63 479.421C331.63 479.421 332.537 482.394 335.291 481.153C336.266 480.713 339.169 474.958 339.169 474.958C339.169 474.958 341.418 472.121 342.601 468.954C344.688 463.363 346.393 452.985 345.991 449.936C345.042 442.749 342.906 430.619 340.098 423.899C341.756 406.632 348.109 337.307 344.604 324.138C340.593 309.07 332.733 288.651 332.733 288.651L302.573 306.389L315.502 333.992L317.955 417.542Z" fill="#E576C6"/>
<path d="M248 200.543C248 200.543 248 201.5 245 202C240 202.559 240 202.559 232 202.559C223 202.559 231 202.559 221.5 202.559C214 202.559 216.612 202 214 202C198.005 203.081 187.434 205.649 178.21 214.3C160.649 230.771 146.429 261.135 140.582 291.133L172.673 305.454L184.103 349.621L268.088 348.341C268.088 348.341 267.353 340.251 269.164 328.561C271.523 313.271 280.039 301.861 280.039 301.861L288.486 314.701L341.021 283.731C323.822 252.368 299.832 220.03 283.837 209.74C272.538 202.467 262.192 200.642 252.082 200.543C248.393 200.543 252.5 200.548 248 200.543Z" fill="#72A065"/>
<path opacity="0.202962" d="M183.728 350.388C180.52 309.645 159.315 300.03 175.315 254.337" stroke="#121212" stroke-width="3"/>
<path opacity="0.202962" d="M258.469 273.338L277.956 302.863" stroke="#121212" stroke-width="3"/>
<path d="M102.845 274.529L104 261.484C104 261.484 103.991 256.098 103.304 250.284C102.616 244.47 98.6486 237.595 102.845 227.331C107.042 217.076 97.0088 224.156 94.7871 229.034C92.9358 233.1 93.9143 241.652 91.6398 244.782C89.7179 243.721 88.4395 242.339 88.4395 242.339L66.8136 213.964C66.1171 213.01 64.8299 212.724 63.7984 213.286L62.6347 213.928C61.4093 214.606 61.0214 216.193 61.806 217.353C66.0289 223.621 79.1121 242.009 78.7594 242.196L78.1864 242.9L52.7871 215.81C51.9936 214.909 50.6624 214.749 49.6838 215.435L48.1586 216.505C47.0478 217.281 46.8098 218.833 47.6385 219.903C52.6901 226.502 71.6448 247.448 71.2833 247.653L70.5251 248.393L46.8803 227.268C46.0427 226.323 44.6145 226.216 43.6448 227.01L42.4899 227.964C41.476 228.793 41.3261 230.3 42.1548 231.317L64.4861 252.558L63.8425 253.583L44.4558 239.806C43.5654 239.003 42.2254 239.003 41.3261 239.797L40.7883 240.288C39.8362 241.144 39.7304 242.615 40.5591 243.605C43.3979 247.002 52.214 252.691 59.1435 259.709C64.5214 265.158 67.1574 270.321 74.6687 276.438C77.8425 279.033 87.1138 281.564 89.8115 283L102.845 274.529Z" fill="#E576C6"/>
<path d="M329.929 847.419C328.886 814.908 322.146 609.545 315.22 487.366C310.421 402.681 274.507 356.056 267.766 348H182.194C182.038 349.082 170.519 430.617 168.411 601.225C166.519 754.014 168.47 837.529 168.714 847.35L168.714 847.355L165.981 847.351L165.963 860.504L210.275 860.576L210.293 847.422L208.765 847.42L208.765 847.419L231.267 580.049L238.007 500.026L289.167 847.35L289.167 847.353L286.955 847.349L287.727 860.502L333.604 860.576L332.832 847.424L329.929 847.419L329.929 847.419Z" fill="#2F2F3D"/>
<path opacity="0.398065" fill-rule="evenodd" clip-rule="evenodd" d="M238.007 500.029L228.8 421.749L231.27 580.047L238.007 500.029Z" fill="#0A0A0F"/>
</g>
</svg>
