<svg width="193" height="68" viewBox="0 0 193 68" fill="none" xmlns="http://www.w3.org/2000/svg">
<path d="M79.992 31.84V15.088H90.576V17.68H83.136V22.048H90.312V24.64H83.136V29.248H90.576V31.84H79.992ZM97.7426 31.84L93.3026 19.456H96.5186L98.1746 24.712L99.5666 29.272H99.7346L101.127 24.712L102.783 19.456H105.879L101.439 31.84H97.7426ZM114.749 17.536C114.029 17.536 113.517 17.384 113.213 17.08C112.925 16.776 112.781 16.408 112.781 15.976V15.4C112.781 14.968 112.925 14.6 113.213 14.296C113.517 13.992 114.029 13.84 114.749 13.84C115.469 13.84 115.973 13.992 116.261 14.296C116.565 14.6 116.717 14.968 116.717 15.4V15.976C116.717 16.408 116.565 16.776 116.261 17.08C115.973 17.384 115.469 17.536 114.749 17.536ZM109.133 29.416H113.213V21.88H109.133V19.456H116.285V29.416H120.077V31.84H109.133V29.416ZM129.212 31.84C128.028 31.84 127.156 31.528 126.596 30.904C126.036 30.28 125.756 29.472 125.756 28.48V21.88H122.156V19.456H124.604C125.1 19.456 125.452 19.36 125.66 19.168C125.868 18.96 125.972 18.6 125.972 18.088V15.088H128.828V19.456H133.868V21.88H128.828V29.416H133.868V31.84H129.212ZM147.323 31.84C146.571 31.84 145.987 31.656 145.571 31.288C145.171 30.904 144.931 30.376 144.851 29.704H144.731C144.507 30.472 144.067 31.072 143.411 31.504C142.755 31.92 141.947 32.128 140.987 32.128C139.739 32.128 138.747 31.8 138.011 31.144C137.275 30.488 136.907 29.576 136.907 28.408C136.907 25.912 138.739 24.664 142.403 24.664H144.587V23.848C144.587 23.064 144.395 22.472 144.011 22.072C143.627 21.672 143.003 21.472 142.139 21.472C141.355 21.472 140.723 21.624 140.243 21.928C139.763 22.232 139.355 22.624 139.019 23.104L137.267 21.616C137.651 20.928 138.267 20.352 139.115 19.888C139.979 19.408 141.091 19.168 142.451 19.168C144.083 19.168 145.355 19.552 146.267 20.32C147.195 21.072 147.659 22.2 147.659 23.704V29.536H149.122V31.84H147.323ZM142.019 30.016C142.755 30.016 143.363 29.848 143.843 29.512C144.339 29.16 144.587 28.688 144.587 28.096V26.44H142.475C140.795 26.44 139.955 26.968 139.955 28.024V28.504C139.955 29 140.139 29.376 140.507 29.632C140.875 29.888 141.379 30.016 142.019 30.016ZM82.536 39.816H82.296V51.84H79.608V35.088H83.472L87.864 47.112H88.104V35.088H90.792V51.84H86.928L82.536 39.816ZM104.151 51.84C103.399 51.84 102.815 51.656 102.399 51.288C101.999 50.904 101.759 50.376 101.679 49.704H101.559C101.335 50.472 100.895 51.072 100.239 51.504C99.5826 51.92 98.7746 52.128 97.8146 52.128C96.5666 52.128 95.5746 51.8 94.8386 51.144C94.1026 50.488 93.7346 49.576 93.7346 48.408C93.7346 45.912 95.5666 44.664 99.2306 44.664H101.415V43.848C101.415 43.064 101.223 42.472 100.839 42.072C100.455 41.672 99.8306 41.472 98.9666 41.472C98.1826 41.472 97.5506 41.624 97.0706 41.928C96.5906 42.232 96.1826 42.624 95.8466 43.104L94.0946 41.616C94.4786 40.928 95.0946 40.352 95.9426 39.888C96.8066 39.408 97.9186 39.168 99.2786 39.168C100.911 39.168 102.183 39.552 103.095 40.32C104.023 41.072 104.487 42.2 104.487 43.704V49.536H105.951V51.84H104.151ZM98.8466 50.016C99.5826 50.016 100.191 49.848 100.671 49.512C101.167 49.16 101.415 48.688 101.415 48.096V46.44H99.3026C97.6226 46.44 96.7826 46.968 96.7826 48.024V48.504C96.7826 49 96.9666 49.376 97.3346 49.632C97.7026 49.888 98.2066 50.016 98.8466 50.016ZM113.933 52.128C112.573 52.128 111.397 51.92 110.405 51.504C109.413 51.072 108.637 50.496 108.077 49.776L109.877 48.144C110.389 48.704 110.973 49.136 111.629 49.44C112.301 49.744 113.077 49.896 113.957 49.896C114.725 49.896 115.341 49.768 115.805 49.512C116.269 49.256 116.501 48.864 116.501 48.336C116.501 47.888 116.341 47.584 116.021 47.424C115.717 47.264 115.309 47.144 114.797 47.064L112.805 46.752C112.293 46.672 111.789 46.56 111.293 46.416C110.813 46.256 110.381 46.04 109.997 45.768C109.629 45.496 109.333 45.152 109.109 44.736C108.885 44.304 108.773 43.784 108.773 43.176C108.773 41.88 109.253 40.888 110.213 40.2C111.189 39.512 112.525 39.168 114.221 39.168C115.421 39.168 116.437 39.336 117.269 39.672C118.117 40.008 118.813 40.48 119.357 41.088L117.749 42.864C117.397 42.48 116.925 42.144 116.333 41.856C115.757 41.552 115.021 41.4 114.125 41.4C112.557 41.4 111.773 41.888 111.773 42.864C111.773 43.312 111.933 43.624 112.253 43.8C112.573 43.96 112.989 44.08 113.501 44.16L115.469 44.472C115.997 44.552 116.501 44.672 116.981 44.832C117.477 44.976 117.909 45.184 118.277 45.456C118.661 45.728 118.965 46.072 119.189 46.488C119.413 46.904 119.525 47.416 119.525 48.024C119.525 49.304 119.029 50.312 118.037 51.048C117.061 51.768 115.693 52.128 113.933 52.128ZM128.66 52.128C127.668 52.128 126.788 51.976 126.02 51.672C125.252 51.368 124.604 50.936 124.076 50.376C123.564 49.816 123.172 49.144 122.9 48.36C122.628 47.56 122.492 46.664 122.492 45.672C122.492 44.664 122.628 43.76 122.9 42.96C123.188 42.16 123.588 41.48 124.1 40.92C124.612 40.36 125.228 39.928 125.948 39.624C126.684 39.32 127.508 39.168 128.42 39.168C129.316 39.168 130.124 39.32 130.844 39.624C131.564 39.912 132.172 40.328 132.668 40.872C133.18 41.416 133.572 42.072 133.844 42.84C134.116 43.608 134.252 44.456 134.252 45.384V46.392H125.564V46.704C125.564 47.6 125.844 48.328 126.404 48.888C126.964 49.432 127.748 49.704 128.756 49.704C129.524 49.704 130.18 49.552 130.724 49.248C131.284 48.928 131.748 48.512 132.116 48L133.868 49.752C133.42 50.408 132.764 50.968 131.9 51.432C131.052 51.896 129.972 52.128 128.66 52.128ZM128.444 41.424C127.58 41.424 126.884 41.696 126.356 42.24C125.828 42.784 125.564 43.504 125.564 44.4V44.568H131.18V44.352C131.18 43.456 130.932 42.744 130.436 42.216C129.956 41.688 129.292 41.424 128.444 41.424ZM140.915 51.84L136.475 39.456H139.691L141.347 44.712L142.739 49.272H142.907L144.299 44.712L145.955 39.456H149.051L144.611 51.84H140.915ZM157.105 52.128C155.745 52.128 154.569 51.92 153.577 51.504C152.585 51.072 151.809 50.496 151.249 49.776L153.049 48.144C153.561 48.704 154.145 49.136 154.801 49.44C155.473 49.744 156.249 49.896 157.129 49.896C157.897 49.896 158.513 49.768 158.977 49.512C159.441 49.256 159.673 48.864 159.673 48.336C159.673 47.888 159.513 47.584 159.193 47.424C158.889 47.264 158.481 47.144 157.969 47.064L155.977 46.752C155.465 46.672 154.961 46.56 154.465 46.416C153.985 46.256 153.553 46.04 153.169 45.768C152.801 45.496 152.505 45.152 152.281 44.736C152.057 44.304 151.945 43.784 151.945 43.176C151.945 41.88 152.425 40.888 153.385 40.2C154.361 39.512 155.697 39.168 157.393 39.168C158.593 39.168 159.609 39.336 160.441 39.672C161.289 40.008 161.985 40.48 162.529 41.088L160.921 42.864C160.569 42.48 160.097 42.144 159.505 41.856C158.929 41.552 158.193 41.4 157.297 41.4C155.729 41.4 154.945 41.888 154.945 42.864C154.945 43.312 155.105 43.624 155.425 43.8C155.745 43.96 156.161 44.08 156.673 44.16L158.641 44.472C159.169 44.552 159.673 44.672 160.153 44.832C160.649 44.976 161.081 45.184 161.449 45.456C161.833 45.728 162.137 46.072 162.361 46.488C162.585 46.904 162.697 47.416 162.697 48.024C162.697 49.304 162.201 50.312 161.209 51.048C160.233 51.768 158.865 52.128 157.105 52.128ZM166.192 34.08H169.264V44.496H169.408L171.208 42.528L174.256 39.456H177.832L172.912 44.328L178.36 51.84H174.688L170.728 46.08L169.264 47.472V51.84H166.192V34.08ZM190.494 51.84C189.742 51.84 189.158 51.656 188.742 51.288C188.342 50.904 188.102 50.376 188.022 49.704H187.902C187.678 50.472 187.238 51.072 186.582 51.504C185.926 51.92 185.118 52.128 184.158 52.128C182.91 52.128 181.918 51.8 181.182 51.144C180.446 50.488 180.078 49.576 180.078 48.408C180.078 45.912 181.91 44.664 185.574 44.664H187.758V43.848C187.758 43.064 187.566 42.472 187.182 42.072C186.798 41.672 186.174 41.472 185.31 41.472C184.526 41.472 183.894 41.624 183.414 41.928C182.934 42.232 182.526 42.624 182.19 43.104L180.438 41.616C180.822 40.928 181.438 40.352 182.286 39.888C183.15 39.408 184.262 39.168 185.622 39.168C187.254 39.168 188.526 39.552 189.438 40.32C190.366 41.072 190.83 42.2 190.83 43.704V49.536H192.294V51.84H190.494ZM185.19 50.016C185.926 50.016 186.534 49.848 187.014 49.512C187.51 49.16 187.758 48.688 187.758 48.096V46.44H185.646C183.966 46.44 183.126 46.968 183.126 48.024V48.504C183.126 49 183.31 49.376 183.678 49.632C184.046 49.888 184.55 50.016 185.19 50.016Z" fill="white"/>
<ellipse cx="32.7024" cy="33.9549" rx="32.7024" ry="33.6834" fill="#B476E5"/>
</svg>
