<svg width="238" height="555" viewBox="0 0 238 555" fill="none" xmlns="http://www.w3.org/2000/svg">
<g clip-path="url(#clip0)">
<path fill-rule="evenodd" clip-rule="evenodd" d="M73.4902 315.643L61.1393 312.174L73.4188 268.461C75.2486 261.948 71.453 255.184 64.9409 253.355L26.882 242.663C20.3707 240.834 13.6083 244.632 11.7785 251.146L-0.162534 293.653L-11.0199 290.603C-14.8747 289.52 -18.8777 291.768 -19.9609 295.624L-59.7953 437.426C-60.8785 441.282 -58.6317 445.286 -54.7769 446.369L-32.7031 452.569C-28.8483 453.652 -24.8453 451.404 -23.7621 447.548C-22.6789 443.693 -24.9258 439.689 -28.7806 438.606L-43.8746 434.366L-35.2943 403.822C-29.3825 398.664 -23.1245 396.361 -17.4759 397.948C-3.99263 401.736 0.913161 426.249 -6.51761 452.701C-13.9484 479.153 -30.9018 497.526 -44.385 493.739C-56.7152 490.275 -61.8724 469.474 -56.9789 445.71C-59.5543 444.023 -60.8607 440.804 -59.9836 437.681L-37.6319 358.114C-55.2352 372.331 -71.6046 399.043 -80.8147 431.829C-95.999 485.882 -85.974 535.975 -58.4234 543.714C-57.7609 543.9 -57.0942 544.06 -56.4238 544.194L-19.6378 554.528C-18.9957 554.763 -18.3433 554.973 -17.6807 555.159C9.87059 562.899 44.5135 525.354 59.6978 471.302C68.8919 438.572 68.8436 407.295 61.2582 385.994L78.5087 324.586C79.5919 320.73 77.345 316.726 73.4902 315.643ZM54.8947 334.403L57.2167 326.137L62.5879 327.646L51.1738 368.278C47.2326 363.946 42.5919 360.903 37.3062 359.418C37.2543 359.403 37.2025 359.389 37.1506 359.375L-3.28112 348.017C-3.33285 348.002 -3.38464 347.987 -3.4365 347.973C-8.65813 346.506 -14.1346 346.665 -19.685 348.256L-7.9627 306.527L-4.08507 307.616L-6.74563 317.087C-8.57548 323.601 -4.77985 330.365 1.73146 332.194L39.7904 342.885C46.3025 344.715 53.0648 340.917 54.8947 334.403Z" fill="#72A065"/>
<path fill-rule="evenodd" clip-rule="evenodd" d="M-56.7768 445.464C-56.1752 445.856 -55.5048 446.164 -54.777 446.369L-32.7032 452.569C-28.8484 453.652 -24.8454 451.404 -23.7622 447.548C-22.6791 443.693 -24.9259 439.689 -28.7807 438.606L-43.8748 434.366L-35.2541 403.678C-29.2919 398.415 -22.9672 396.051 -17.2639 397.653C-3.78062 401.441 1.12518 425.954 -6.30559 452.406C-13.7364 478.858 -30.6897 497.232 -44.173 493.444C-56.4948 489.983 -61.6533 469.208 -56.7768 445.464L-56.7768 445.464Z" fill="#19141E"/>
<path fill-rule="evenodd" clip-rule="evenodd" d="M2.21433 284.403L63.8546 301.719L69.7868 280.601L8.14648 263.286L2.21433 284.403Z" fill="#19141E"/>
<path opacity="0.395764" fill-rule="evenodd" clip-rule="evenodd" d="M51.6232 368.471C51.454 368.272 51.2817 368.071 51.1064 367.869L62.3218 327.945L56.7452 326.379L60.6678 312.415L73.224 315.943C77.0788 317.025 79.3257 321.029 78.2425 324.885C70.8264 351.711 65.2228 371.875 61.4317 385.375C61.1895 384.762 60.9407 384.158 60.6853 383.564C60.5036 383.074 60.3271 382.592 60.1418 382.231C60.0937 382.137 60.0472 382.045 60.0022 381.955C69.1641 403.217 69.8759 436.485 60.0661 471.405C44.8818 525.458 10.239 563.003 -17.3124 555.263C-17.9749 555.077 -18.6273 554.866 -19.2695 554.632L-56.0555 544.298C-28.8495 549.742 4.5043 512.713 19.3234 459.96C34.4791 406.009 24.5201 356.004 -2.91261 348.12L37.5189 359.478C37.5708 359.492 37.6227 359.507 37.6746 359.521C42.9966 361.016 47.6646 364.092 51.6232 368.471V368.471ZM57.8827 377.535C58.1467 378.031 58.4054 378.534 58.6586 379.046C58.4377 378.573 58.1955 378.088 57.8827 377.535V377.535ZM-43.875 434.366L-28.781 438.606C-24.9262 439.689 -22.6793 443.693 -23.7625 447.548C-24.8457 451.404 -28.8487 453.652 -32.7035 452.569L-54.7773 446.369C-58.6321 445.286 -60.8789 441.282 -59.7957 437.426L-19.9613 295.624C-18.8781 291.768 -14.8751 289.52 -11.0203 290.603L11.0535 296.804C14.9083 297.887 17.1551 301.89 16.072 305.746C14.9888 309.602 10.9858 311.85 7.13098 310.767L-7.96306 306.527L-43.875 434.366Z" fill="#121212"/>
<path d="M117.06 241.526L194.504 204.108" stroke="#19141E" stroke-width="16" stroke-linecap="round"/>
<path fill-rule="evenodd" clip-rule="evenodd" d="M32.4793 244.539L59.4504 252.116L65.556 230.381L38.585 222.804L32.4793 244.539Z" fill="#19141E"/>
<path fill-rule="evenodd" clip-rule="evenodd" d="M3.7384 215.192L4.57054 214.284C8.63319 220.978 15.1283 226.212 23.2126 228.483L75.722 243.234C78.7864 244.095 81.8776 244.474 84.9137 244.416C85.2362 254.708 93.4936 263.249 103.937 263.73L105.785 263.816C116.75 264.32 126.138 255.757 126.647 244.786L129.526 182.708C129.893 174.788 125.538 167.693 118.963 164.167C114.873 158.3 108.818 153.759 101.439 151.686L48.9299 136.935C44.8349 135.785 40.692 135.496 36.6967 135.959C29.2954 133.19 20.5939 134.981 14.946 141.144L-27.0384 186.952C-34.4591 195.049 -33.9124 207.746 -25.8238 215.168L-24.4603 216.419C-16.3717 223.841 -3.68308 223.289 3.7384 215.192ZM-80.8989 317.032L-69.0907 319.608C-69.0842 319.578 -69.0599 319.473 -69.0174 319.301C-68.7082 318.048 -68.2367 316.46 -67.5949 314.697C-66.6714 312.16 -65.5622 309.74 -64.2787 307.604C-60.4688 301.264 -56.2982 298.855 -50.7781 300.644C-46.0221 302.185 -45.4512 304.748 -48.0809 310.765C-49.1073 313.113 -50.5781 315.62 -52.3331 318.129C-53.2558 319.448 -54.1949 320.68 -55.0955 321.783C-55.4068 322.165 -55.6888 322.5 -55.9348 322.785C-56.0729 322.946 -56.1617 323.046 -56.1945 323.082L-47.2275 331.188C-46.9113 330.838 -46.3964 330.241 -45.7352 329.431C-44.6543 328.106 -43.5358 326.639 -42.4315 325.061C-40.252 321.944 -38.3913 318.774 -37.0074 315.607C-34.786 310.525 -33.8958 305.734 -34.8926 301.257C-36.1725 295.509 -40.4019 291.292 -47.0513 289.138C-58.8584 285.313 -68.2402 290.731 -74.6363 301.375C-77.6481 306.387 -79.6069 311.768 -80.7514 316.406C-80.8206 316.686 -80.8695 316.897 -80.8989 317.032Z" fill="#72A065"/>
<path fill-rule="evenodd" clip-rule="evenodd" d="M58.4937 206.021L84.2702 213.262C89.3906 214.7 94.7561 211.685 96.1953 206.562L100.445 191.435C101.884 186.312 98.8733 180.944 93.7529 179.506L67.9764 172.265C62.856 170.826 57.4905 173.841 56.0513 178.965L51.802 194.091C50.3628 199.214 53.3733 204.582 58.4937 206.021" fill="#19141E"/>
<path opacity="0.399182" fill-rule="evenodd" clip-rule="evenodd" d="M14.8321 141.238C22.252 133.141 34.9422 132.59 43.0308 140.012L44.3935 141.262C52.4821 148.684 53.0296 161.381 45.6089 169.478L3.62448 215.286C-3.797 223.383 -16.4856 223.935 -24.5742 216.513L-25.9377 215.262C-34.0263 207.84 -34.573 195.143 -27.1523 187.046L14.8321 141.238ZM99.0299 240.92C97.3506 243.845 97.6765 247.636 100.086 250.24C103.055 253.447 108.059 253.637 111.265 250.666C114.471 247.695 114.663 242.687 111.695 239.481C109.915 237.558 107.402 236.72 104.984 236.998C109.806 232.995 113.505 227.551 115.318 221.095L123.725 191.169C126.411 181.607 124.41 171.787 119.114 164.189C125.69 167.714 130.045 174.81 129.677 182.729L126.799 244.808C126.289 255.779 116.901 264.342 105.937 263.837L104.088 263.752C93.6448 263.271 85.3874 254.729 85.0649 244.437C89.9799 244.344 94.7506 243.106 99.0299 240.92ZM-6.21895 193.08C-2.53498 195.428 -1.45304 200.32 -3.80028 204.007C-6.1483 207.694 -11.0384 208.779 -14.7225 206.432C-18.4063 204.083 -19.4892 199.191 -17.1412 195.504C-14.793 191.816 -9.90292 190.732 -6.21895 193.08ZM35.5975 161.021C37.9456 157.334 36.8626 152.442 33.1789 150.093C29.4949 147.745 24.6046 148.831 22.2566 152.518C19.9086 156.205 20.9915 161.097 24.6753 163.445C28.3592 165.793 33.2495 164.708 35.5975 161.021ZM-80.9143 317.109L-69.1062 319.685C-69.0997 319.656 -69.0754 319.551 -69.0328 319.378C-68.7237 318.126 -68.2522 316.538 -67.6103 314.774C-66.6868 312.237 -65.5777 309.818 -64.2942 307.682C-60.4843 301.342 -56.3136 298.933 -50.7935 300.721C-46.0375 302.262 -45.4666 304.826 -48.0964 310.843C-49.1228 313.191 -50.5936 315.697 -52.3485 318.206C-53.2712 319.526 -54.2104 320.757 -55.111 321.861C-55.4222 322.242 -55.7043 322.578 -55.9503 322.863C-56.0883 323.023 -56.1772 323.124 -56.21 323.16L-47.243 331.266C-46.9267 330.915 -46.4119 330.318 -45.7507 329.508C-44.6698 328.184 -43.5513 326.717 -42.447 325.138C-40.2675 322.022 -38.4067 318.851 -37.0228 315.685C-34.8014 310.602 -33.9113 305.811 -34.9081 301.335C-36.1879 295.587 -40.4174 291.37 -47.0668 289.215C-58.8739 285.391 -68.2557 290.809 -74.6517 301.452C-77.6636 306.464 -79.6223 311.846 -80.7668 316.483C-80.8361 316.764 -80.885 316.975 -80.9143 317.109Z" fill="#121212"/>
<path opacity="0.601772" fill-rule="evenodd" clip-rule="evenodd" d="M-3.81919 203.984C-6.16721 207.671 -11.0573 208.755 -14.7415 206.408C-18.4252 204.059 -19.5081 199.167 -17.1601 195.48C-14.8119 191.792 -9.92182 190.708 -6.23785 193.056C-2.55389 195.404 -1.47195 200.297 -3.81919 203.984ZM35.5786 160.998C33.2305 164.685 28.3403 165.77 24.6563 163.422C20.9726 161.073 19.8896 156.181 22.2376 152.494C24.5857 148.807 29.4759 147.722 33.1599 150.07C36.8436 152.419 37.9266 157.311 35.5786 160.998ZM111.246 250.71C108.04 253.681 103.035 253.49 100.067 250.284C97.0994 247.078 97.2918 242.07 100.497 239.099C103.702 236.128 108.707 236.318 111.675 239.524C114.644 242.731 114.451 247.739 111.246 250.71Z" fill="#121212"/>
<path d="M226.606 183.082L237.82 187.601C237.588 188.175 237.177 189.104 236.59 190.299C235.63 192.254 234.502 194.287 233.205 196.311C229.702 201.779 225.62 206.224 220.776 209.04C214.264 212.826 206.994 213.193 199.756 209.412C192.511 205.626 189.093 199.64 189.89 192.68C190.458 187.717 193.05 182.829 197.053 177.884C199.074 175.387 201.344 173.025 203.699 170.852C204.522 170.093 205.299 169.409 206.011 168.808C206.452 168.435 206.785 168.165 206.987 168.005L214.47 177.496C214.372 177.574 214.145 177.759 213.811 178.04C213.231 178.53 212.586 179.097 211.9 179.731C209.945 181.535 208.068 183.487 206.452 185.484C203.764 188.804 202.157 191.835 201.904 194.047C201.693 195.887 202.421 197.162 205.362 198.699C208.802 200.496 211.676 200.351 214.701 198.592C217.603 196.905 220.465 193.789 223.022 189.797C224.057 188.181 224.966 186.542 225.736 184.976C226.002 184.435 226.23 183.945 226.418 183.52C226.522 183.283 226.586 183.133 226.606 183.082Z" fill="#72A065"/>
<path opacity="0.399182" d="M226.28 183.399L237.493 187.918C237.262 188.492 236.85 189.421 236.263 190.616C235.303 192.571 234.176 194.603 232.878 196.628C229.376 202.095 225.294 206.541 220.45 209.357C213.938 213.143 206.668 213.51 199.43 209.728C192.185 205.943 188.767 199.957 189.564 192.997C190.131 188.034 192.724 183.146 196.727 178.201C198.748 175.704 201.018 173.342 203.373 171.168C204.196 170.41 204.973 169.725 205.685 169.125C206.126 168.752 206.458 168.481 206.661 168.322L214.144 177.813C214.046 177.891 213.818 178.075 213.485 178.357C212.904 178.847 212.26 179.414 211.574 180.048C209.618 181.852 207.742 183.804 206.126 185.801C203.438 189.121 201.831 192.152 201.578 194.364C201.367 196.204 202.095 197.479 205.036 199.016C208.476 200.813 211.35 200.668 214.375 198.909C217.277 197.221 220.138 194.105 222.696 190.113C223.731 188.498 224.64 186.859 225.409 185.293C225.676 184.752 225.903 184.262 226.092 183.837C226.196 183.6 226.259 183.45 226.28 183.399Z" fill="#121212"/>
<path d="M141.044 103.204L156.266 49.0154" stroke="#19141E" stroke-width="7"/>
<path fill-rule="evenodd" clip-rule="evenodd" d="M139.437 127.568L117.132 121.302L126.514 87.9047L148.819 94.1706C157.962 96.739 163.331 106.354 160.751 115.538C158.171 124.723 148.58 130.136 139.437 127.568" fill="#19141E"/>
<path fill-rule="evenodd" clip-rule="evenodd" d="M147.293 35.0236C149.735 29.2964 156.084 26.1279 162.212 27.8492C168.873 29.7203 172.749 36.6619 170.869 43.3534C168.989 50.0449 162.065 53.9525 155.405 52.0814C150.533 50.7128 147.151 46.6319 146.42 41.9204L139.825 33.0928L125.908 38.6742L116.942 26.6652L103.03 32.2477L94.0639 20.2385L80.1532 25.8211L75.2027 19.1915C72.5098 24.353 66.5078 27.1088 60.7045 25.4786C54.0432 23.6073 50.1668 16.6657 52.0466 9.97423C53.9263 3.28273 60.8504 -0.624855 67.5117 1.24643C72.9421 2.77191 76.5211 7.66669 76.6401 13.0488L81.8001 19.9589L95.7111 14.3762L104.678 26.3855L118.589 20.803L127.556 32.8126L141.472 27.2317L147.293 35.0236ZM123.293 149.659L36.4749 125.27C29.5625 123.328 25.5404 116.126 27.491 109.182L43.6745 51.5723C45.6251 44.6287 52.8097 40.5734 59.7221 42.5152L146.54 66.9037C153.453 68.8455 157.474 76.049 155.524 82.9926L139.34 140.602C137.39 147.546 130.205 151.601 123.293 149.659ZM41.3629 138.946L111.998 158.789C115.132 159.669 118.39 157.831 119.275 154.682C120.16 151.533 118.336 148.266 115.201 147.386L44.5663 127.543C41.4321 126.663 38.1733 128.501 37.2887 131.65C36.4041 134.8 38.2288 138.066 41.3629 138.946Z" fill="#72A065"/>
<path opacity="0.404367" d="M94.0647 20.2385L80.1539 25.8211L75.1907 19.2382L76.6167 13.0195L81.8008 19.9589L95.7118 14.3762L104.678 26.3855L118.59 20.803L127.557 32.8126L141.472 27.2317L147.149 35.1499L146.539 41.9964L139.826 33.0928L125.909 38.6742L116.943 26.6652L103.031 32.2477L94.0647 20.2385Z" fill="#121212"/>
<path opacity="0.395624" fill-rule="evenodd" clip-rule="evenodd" d="M111.998 158.789L41.3632 138.946C38.2291 138.066 36.4043 134.8 37.289 131.65C38.1736 128.501 41.4324 126.663 44.5665 127.543L115.201 147.386C118.336 148.266 120.16 151.533 119.275 154.682C118.391 157.831 115.133 159.669 111.998 158.789" fill="#121212"/>
<path fill-rule="evenodd" clip-rule="evenodd" d="M26.8826 95.9493L49.1868 102.215L58.5686 68.818L36.2643 62.5523C27.1215 59.984 17.5299 65.3964 14.9499 74.5806C12.3699 83.7648 17.7397 93.3809 26.8826 95.9493" fill="#19141E"/>
<path fill-rule="evenodd" clip-rule="evenodd" d="M139.274 109.505C135.687 122.275 124.545 130.315 114.39 127.462C104.234 124.609 98.9103 111.944 102.498 99.174C106.085 86.4039 117.225 78.3639 127.381 81.2167C137.536 84.0695 142.861 96.735 139.274 109.505" fill="#19141E"/>
<path fill-rule="evenodd" clip-rule="evenodd" d="M105.749 125.035L114.39 127.462L127.381 81.2166L118.74 78.7893L105.749 125.035Z" fill="#19141E"/>
<path fill-rule="evenodd" clip-rule="evenodd" d="M130.632 107.078C127.045 119.848 115.904 127.888 105.748 125.035C95.5928 122.182 90.2687 109.517 93.856 96.7466C97.4433 83.9765 108.584 75.9364 118.739 78.7892C128.895 81.6423 134.22 94.3075 130.632 107.078" fill="white"/>
<path fill-rule="evenodd" clip-rule="evenodd" d="M122.094 103.005C120.831 107.5 116.909 110.331 113.334 109.326C109.759 108.322 107.885 103.863 109.148 99.3682C110.411 94.873 114.332 92.0422 117.907 93.0465C121.483 94.0508 123.357 98.5097 122.094 103.005" fill="#19141E"/>
<path d="M46.344 76.601L60.865 24.9092" stroke="#19141E" stroke-width="7"/>
</g>
<defs>
<clipPath id="clip0">
<rect width="238" height="555" fill="white"/>
</clipPath>
</defs>
</svg>
